<?xml version="1.0" standalone="no"?>
<!DOCTYPE svg PUBLIC "-//W3C//DTD SVG 20010904//EN"
 "http://www.w3.org/TR/2001/REC-SVG-20010904/DTD/svg10.dtd">
<svg version="1.0" xmlns="http://www.w3.org/2000/svg"
 width="1500.000000pt" height="500.000000pt" viewBox="0 0 1500.000000 500.000000"
 preserveAspectRatio="xMidYMid meet">
<metadata>
Created by potrace 1.16, written by Peter Selinger 2001-2019
</metadata>
<g transform="translate(0.000000,500.000000) scale(0.100000,-0.100000)"
fill="#000000" stroke="none">
<path d="M1900 4749 c-171 -22 -330 -70 -496 -149 -553 -263 -960 -794 -1135
-1480 -57 -224 -73 -367 -73 -655 0 -288 16 -431 73 -655 250 -979 990 -1641
1834 -1640 616 1 1185 356 1552 968 400 668 464 1568 165 2319 -59 146 -93
216 -173 348 -274 455 -677 776 -1128 899 -185 51 -435 69 -619 45z m760
-1084 l0 -255 -159 0 c-155 0 -161 -1 -188 -24 l-28 -24 0 -202 0 -202 187 2
188 1 -5 -28 c-2 -15 -9 -98 -15 -183 -6 -85 -13 -183 -16 -217 l-6 -63 -169
0 -169 0 0 -740 0 -740 -240 0 -240 0 0 740 0 740 -130 0 -130 0 0 245 0 245
130 0 130 0 0 258 c0 285 9 351 59 458 48 103 136 176 256 214 25 8 132 16
285 20 135 3 248 7 253 8 4 1 7 -113 7 -253z"/>
<path d="M4863 4535 c-181 -33 -298 -136 -332 -293 -17 -80 -15 -890 3 -963
33 -140 131 -234 289 -276 85 -23 289 -23 374 0 131 35 221 105 269 210 26 56
28 75 32 200 3 99 1 141 -8 152 -16 20 -222 22 -238 3 -5 -7 -12 -71 -14 -143
-3 -108 -7 -136 -23 -163 -42 -70 -146 -101 -264 -81 -77 14 -131 56 -149 117
-16 54 -17 885 -1 933 16 46 65 96 108 111 61 21 180 15 234 -11 72 -35 91
-74 95 -201 2 -58 9 -111 14 -117 16 -20 222 -18 238 2 9 11 11 47 8 128 -4
96 -8 121 -32 174 -34 75 -103 144 -182 180 -107 49 -277 64 -421 38z"/>
<path d="M6003 4536 c-86 -17 -172 -54 -228 -100 -51 -42 -100 -132 -114 -210
-14 -77 -15 -828 -1 -915 35 -213 202 -324 490 -325 245 0 394 74 469 233 l26
56 0 490 0 490 -29 62 c-47 103 -139 174 -269 209 -77 21 -258 26 -344 10z
m272 -200 c40 -17 82 -67 95 -114 14 -50 13 -864 -1 -915 -25 -89 -100 -132
-232 -130 -114 2 -187 51 -207 139 -12 51 -12 847 0 898 16 73 67 118 152 136
52 11 150 3 193 -14z"/>
<path d="M10620 4539 c-127 -18 -237 -79 -293 -162 -66 -96 -67 -109 -67 -613
0 -417 2 -457 19 -513 39 -127 132 -208 284 -248 78 -21 279 -23 357 -4 90 22
177 69 225 123 66 73 87 138 93 289 7 176 11 170 -136 167 l-117 -3 -6 -135
c-6 -142 -15 -175 -61 -216 -35 -32 -94 -48 -176 -47 -98 1 -158 30 -189 93
-23 44 -23 47 -23 495 0 448 0 451 23 495 30 61 91 92 185 94 89 1 135 -9 172
-41 50 -41 63 -78 68 -188 2 -55 9 -106 14 -112 7 -9 44 -13 119 -13 135 0
134 -1 126 144 -6 125 -31 197 -93 265 -100 111 -306 163 -524 130z"/>
<path d="M12823 4536 c-194 -37 -311 -144 -342 -311 -15 -79 -15 -841 0 -920
39 -212 203 -319 489 -319 245 0 394 74 469 233 l26 56 0 490 0 490 -26 56
c-72 152 -207 225 -434 234 -70 3 -136 0 -182 -9z m276 -209 c52 -26 79 -58
91 -113 5 -21 10 -223 10 -449 0 -225 -5 -428 -10 -449 -21 -92 -95 -139 -220
-139 -125 0 -199 47 -220 139 -5 21 -10 224 -10 449 0 226 5 428 10 449 11 48
37 85 78 109 70 41 192 43 271 4z"/>
<path d="M6842 4518 c-17 -17 -17 -1489 0 -1506 8 -8 48 -12 115 -12 102 0
104 0 113 26 6 15 10 234 10 552 0 318 4 522 9 516 5 -5 115 -249 245 -543
129 -294 241 -538 248 -542 21 -14 242 -11 256 3 9 9 12 190 12 754 0 622 -2
743 -14 753 -9 8 -50 11 -117 9 l-104 -3 -5 -480 c-3 -278 -9 -479 -14 -478
-5 1 -103 212 -218 469 -115 257 -214 474 -220 481 -14 18 -298 19 -316 1z"/>
<path d="M7982 4518 c-7 -7 -12 -41 -12 -85 0 -61 3 -74 19 -83 12 -6 92 -10
190 -10 l171 0 0 -644 c0 -395 4 -655 10 -670 9 -26 10 -26 130 -26 120 0 121
0 130 26 6 15 10 275 10 670 l0 644 171 0 c98 0 178 4 190 10 16 9 19 22 19
83 0 44 -5 78 -12 85 -17 17 -999 17 -1016 0z"/>
<path d="M9360 4508 c-23 -52 -391 -1453 -388 -1477 l3 -26 113 -3 113 -3 13
33 c8 18 26 80 41 138 15 58 32 111 38 118 12 16 482 18 492 2 4 -6 22 -67 40
-136 18 -69 39 -132 45 -140 18 -21 232 -20 250 1 10 12 -25 153 -185 752
-108 406 -201 743 -207 750 -8 10 -56 13 -184 13 -171 0 -175 0 -184 -22z
m282 -655 c53 -196 95 -360 92 -365 -6 -10 -391 -11 -397 0 -4 6 172 678 188
721 3 8 9 11 12 7 4 -4 51 -167 105 -363z"/>
<path d="M11342 4518 c-7 -7 -12 -41 -12 -85 0 -61 3 -74 19 -83 12 -6 92 -10
190 -10 l171 0 0 -644 c0 -395 4 -655 10 -670 9 -26 10 -26 130 -26 120 0 121
0 130 26 6 15 10 275 10 670 l0 644 171 0 c98 0 178 4 190 10 16 9 19 22 19
83 0 44 -5 78 -12 85 -17 17 -999 17 -1016 0z"/>
<path d="M5996 2648 c-32 -49 -687 -1659 -684 -1680 3 -23 4 -23 204 -26 181
-2 202 -1 217 15 8 10 75 157 148 326 72 169 136 306 142 304 6 -2 69 -141
141 -309 72 -168 137 -312 145 -322 12 -15 81 -16 790 -16 591 0 780 3 789 12
17 17 17 399 0 416 -9 9 -112 12 -400 12 l-388 0 0 280 0 279 390 3 c334 3
392 5 400 18 13 20 13 390 0 410 -8 13 -88 15 -604 18 -586 2 -596 2 -616 -18
-20 -20 -20 -32 -21 -587 0 -387 -3 -563 -10 -553 -6 8 -142 334 -303 725
-204 496 -297 711 -308 713 -9 2 -23 -7 -32 -20z"/>
<path d="M4162 2374 l-22 -15 0 -843 c0 -903 -1 -884 47 -857 10 5 101 93 203
195 l185 186 5 203 5 202 377 190 c208 105 385 197 394 207 9 9 13 21 10 27
-5 8 -122 11 -385 11 -323 0 -380 2 -391 15 -7 8 -10 22 -6 30 5 13 55 15 386
15 367 0 381 1 400 20 19 19 20 33 20 205 0 172 -1 186 -20 205 -20 20 -33 20
-603 20 -511 0 -585 -2 -605 -16z"/>
<path d="M7980 2370 c-20 -20 -20 -30 -18 -716 3 -605 5 -696 18 -704 9 -6
253 -10 612 -10 580 0 598 1 608 19 15 29 13 383 -2 404 -12 15 -51 17 -403
19 l-390 3 0 30 c0 29 7 34 377 220 208 105 385 197 394 207 9 9 13 21 10 27
-5 8 -122 11 -385 11 -323 0 -380 2 -391 15 -7 8 -10 22 -6 30 5 13 55 15 383
15 326 0 382 2 401 16 21 15 22 20 22 209 0 189 -1 194 -22 209 -20 14 -94 16
-605 16 -572 0 -583 0 -603 -20z"/>
<path d="M9292 2374 l-22 -15 0 -690 c0 -457 4 -697 10 -710 10 -18 28 -19
608 -19 359 0 603 4 612 10 13 8 15 51 15 289 l0 280 -70 71 -69 70 61 62 c34
35 67 76 72 91 7 17 11 129 11 283 0 241 -1 255 -20 274 -20 20 -33 20 -603
20 -511 0 -585 -2 -605 -16z m738 -442 c0 -5 -9 -17 -21 -28 -17 -15 -40 -20
-121 -22 -95 -4 -100 -5 -109 -29 -5 -13 -9 -102 -9 -196 0 -222 -3 -217 122
-217 80 0 95 -3 115 -22 13 -12 23 -25 23 -30 0 -5 -71 -7 -157 -6 l-158 3 -3
265 c-1 146 0 270 3 277 3 10 44 13 160 13 85 0 155 -4 155 -8z"/>
<path d="M10610 2383 c-8 -3 -18 -11 -22 -17 -4 -6 -8 -324 -8 -706 0 -528 3
-699 12 -708 17 -17 1199 -17 1216 0 9 9 12 182 12 715 l0 703 -26 10 c-27 11
-1157 13 -1184 3z m768 -720 l-3 -278 -175 0 -175 0 -3 278 -2 277 180 0 180
0 -2 -277z"/>
<path d="M11913 2380 l-23 -9 0 -704 c0 -533 3 -706 12 -715 17 -17 1199 -17
1216 0 15 15 17 1394 2 1418 -8 13 -87 15 -597 17 -338 1 -598 -2 -610 -7z
m775 -717 l-3 -278 -175 0 -175 0 -3 278 -2 277 180 0 180 0 -2 -277z"/>
<path d="M13210 2370 c-20 -20 -20 -33 -20 -903 0 -941 0 -934 46 -909 10 6
105 97 209 201 l190 191 5 363 5 362 26 -40 c14 -22 113 -179 219 -350 106
-170 200 -318 208 -327 14 -16 38 -18 237 -18 181 0 225 3 234 14 16 19 23 8
-205 338 -108 155 -199 291 -201 300 -4 13 22 31 118 78 68 34 132 69 142 78
15 14 17 42 17 311 0 169 -4 302 -10 311 -8 13 -42 15 -210 15 -168 0 -202 -2
-210 -15 -5 -8 -10 -99 -10 -202 l0 -188 -180 -90 -180 -90 0 275 c0 262 -1
276 -20 295 -19 19 -33 20 -205 20 -172 0 -186 -1 -205 -20z"/>
</g>
</svg>
