<?xml version="1.0" standalone="no"?>
<!DOCTYPE svg PUBLIC "-//W3C//DTD SVG 20010904//EN"
 "http://www.w3.org/TR/2001/REC-SVG-20010904/DTD/svg10.dtd">
<svg version="1.0" xmlns="http://www.w3.org/2000/svg"
 width="1500.000000pt" height="500.000000pt" viewBox="0 0 1500.000000 500.000000"
 preserveAspectRatio="xMidYMid meet">
<metadata>
Created by potrace 1.16, written by Peter Selinger 2001-2019
</metadata>
<g transform="translate(0.000000,500.000000) scale(0.100000,-0.100000)"
fill="#000000" stroke="none">
<path d="M4565 4653 c-275 -38 -471 -227 -547 -530 -20 -76 -23 -113 -22 -278
0 -163 4 -201 22 -270 62 -226 188 -376 373 -442 65 -24 89 -27 199 -27 108 1
136 4 205 27 44 15 108 43 143 64 77 47 172 116 172 125 0 3 -9 27 -20 52
l-19 46 -61 -39 c-81 -53 -168 -81 -266 -88 -227 -16 -389 125 -451 392 -27
119 -24 389 6 500 61 230 174 343 350 353 103 6 173 -15 234 -68 59 -52 90
-119 118 -252 l22 -108 45 0 45 0 -6 107 c-4 58 -7 161 -7 228 l0 122 -93 31
c-155 52 -318 72 -442 55z"/>
<path d="M5740 4645 c-181 -41 -322 -157 -409 -337 -58 -120 -77 -194 -92
-344 -11 -126 1 -290 30 -405 59 -227 185 -372 376 -432 100 -31 280 -31 380
0 172 54 307 198 384 409 45 122 62 230 62 389 1 369 -136 613 -393 702 -90
31 -244 39 -338 18z m244 -139 c111 -65 169 -203 195 -465 33 -318 -16 -618
-120 -736 -101 -115 -287 -113 -393 5 -101 112 -155 357 -143 655 12 321 92
505 244 561 59 22 161 13 217 -20z"/>
<path d="M9515 4648 c-3 -7 -59 -170 -126 -363 -197 -572 -341 -959 -375
-1010 -8 -13 -40 -34 -70 -46 -51 -21 -54 -25 -54 -58 l0 -36 205 0 205 0 0
37 c0 35 -2 38 -42 48 -56 15 -88 36 -88 58 0 9 21 83 46 163 l47 147 51 6
c66 8 260 8 318 0 l44 -6 49 -148 c59 -179 57 -190 -30 -215 -54 -16 -55 -17
-55 -53 l0 -37 290 0 290 0 0 36 c0 34 -3 37 -60 61 -70 31 -83 49 -141 198
-55 141 -336 932 -390 1098 l-43 132 -34 0 c-18 0 -35 -6 -37 -12z m96 -939
c-64 -16 -301 -7 -301 11 0 5 37 115 82 246 l82 238 81 -245 82 -244 -26 -6z"/>
<path d="M10805 4653 c-275 -38 -471 -227 -547 -530 -20 -76 -23 -113 -22
-278 0 -163 4 -201 22 -270 62 -226 188 -376 373 -442 65 -24 89 -27 199 -27
108 1 136 4 205 27 44 15 108 43 143 64 77 47 172 116 172 125 0 3 -9 27 -20
52 l-19 46 -61 -39 c-81 -53 -168 -81 -266 -88 -227 -16 -389 125 -451 392
-27 119 -24 389 6 500 61 230 174 343 350 353 103 6 173 -15 234 -68 59 -52
90 -119 118 -252 l22 -108 45 0 45 0 -6 107 c-4 58 -7 161 -7 228 l0 122 -93
31 c-155 52 -318 72 -442 55z"/>
<path d="M13060 4645 c-181 -41 -322 -157 -409 -337 -58 -120 -77 -194 -92
-344 -11 -126 1 -290 30 -405 59 -227 185 -372 376 -432 100 -31 280 -31 380
0 172 54 307 198 384 409 45 122 62 230 62 389 1 369 -136 613 -393 702 -90
31 -244 39 -338 18z m244 -139 c111 -65 169 -203 195 -465 33 -318 -16 -618
-120 -736 -101 -115 -287 -113 -393 5 -101 112 -155 357 -143 655 12 321 92
505 244 561 59 22 161 13 217 -20z"/>
<path d="M6510 4588 c0 -35 2 -38 43 -48 152 -39 141 -14 145 -359 1 -157 -1
-426 -6 -598 -7 -275 -10 -315 -26 -332 -18 -20 -86 -41 -130 -41 -23 0 -26
-4 -26 -37 l0 -38 240 0 240 0 0 37 c0 30 -3 36 -16 31 -25 -9 -134 28 -147
51 -9 15 -14 168 -18 546 -3 289 -4 527 -2 529 2 2 5 2 7 0 12 -13 554 -859
661 -1030 l128 -206 38 15 38 15 -5 516 c-7 578 2 829 30 860 10 11 49 27 87
36 l69 17 0 37 0 36 -240 0 -240 0 0 -37 0 -37 61 -12 c35 -7 73 -22 88 -35
l26 -22 5 -399 c3 -219 4 -400 3 -402 -2 -2 -4 -2 -6 0 -9 11 -446 691 -519
808 l-84 134 -222 1 -222 1 0 -37z"/>
<path d="M7900 4610 c0 -50 -21 -389 -25 -407 -5 -21 -2 -23 33 -23 l38 0 18
73 c33 138 49 181 77 209 27 27 31 28 133 28 l106 0 0 -603 c0 -571 -1 -605
-18 -620 -19 -17 -47 -28 -119 -47 -41 -10 -43 -13 -43 -48 l0 -37 310 0 310
0 0 37 c0 35 -2 38 -42 48 -24 6 -58 16 -75 21 -66 21 -63 -8 -63 651 l0 598
94 0 c157 0 162 -4 212 -197 l29 -113 39 0 39 0 -7 53 c-3 28 -9 129 -13 222
l-6 170 -513 0 c-450 0 -514 -2 -514 -15z"/>
<path d="M11470 4610 c0 -50 -21 -389 -25 -407 -5 -21 -2 -23 33 -23 l38 0 18
73 c33 138 49 181 77 209 27 27 31 28 133 28 l106 0 0 -603 c0 -571 -1 -605
-18 -620 -19 -17 -47 -28 -119 -47 -41 -10 -43 -13 -43 -48 l0 -37 310 0 310
0 0 37 c0 35 -2 38 -42 48 -24 6 -58 16 -75 21 -66 21 -63 -8 -63 651 l0 598
94 0 c157 0 162 -4 212 -197 l29 -113 39 0 39 0 -7 53 c-3 28 -9 129 -13 222
l-6 170 -513 0 c-450 0 -514 -2 -514 -15z"/>
<path d="M2270 4024 c-334 -58 -579 -182 -805 -409 -205 -204 -335 -443 -396
-725 -19 -88 -23 -136 -23 -295 -1 -163 2 -205 22 -294 28 -126 72 -250 122
-351 20 -41 36 -79 34 -85 -1 -5 -44 -163 -94 -350 -50 -187 -93 -348 -96
-357 -9 -31 35 -22 391 73 187 49 349 88 360 85 11 -2 61 -22 111 -44 527
-234 1141 -120 1553 288 230 227 376 518 422 838 15 109 6 392 -16 492 -63
288 -202 536 -413 742 -197 191 -398 302 -672 370 -69 17 -121 22 -280 24
-107 1 -206 0 -220 -2z m356 -255 c667 -92 1119 -748 980 -1419 -76 -365 -306
-662 -640 -825 -159 -79 -274 -106 -461 -112 -169 -6 -276 8 -410 53 -82 27
-200 82 -246 115 -26 18 -28 18 -120 -7 -52 -14 -151 -40 -220 -59 l-127 -33
35 131 c19 73 45 170 59 217 l24 84 -24 36 c-108 163 -173 375 -183 595 -26
592 390 1115 972 1219 98 17 257 20 361 5z"/>
<path d="M1915 3295 c-51 -18 -116 -90 -158 -174 -59 -121 -48 -291 30 -446
77 -152 214 -338 343 -466 116 -115 228 -191 379 -258 253 -113 361 -124 509
-49 113 57 172 149 172 269 l0 48 -67 39 c-138 80 -266 142 -292 142 -20 0
-43 -20 -104 -90 -86 -100 -98 -105 -170 -69 -131 67 -258 170 -342 280 -57
73 -115 170 -115 191 0 9 27 50 60 89 67 80 79 109 61 153 -7 17 -34 91 -61
165 -27 73 -54 139 -60 146 -18 22 -76 45 -112 45 -18 -1 -51 -7 -73 -15z"/>
<path d="M13282 3053 c-46 -18 -120 -44 -165 -58 -54 -16 -72 -24 -52 -24 80
-1 228 47 289 94 34 26 13 23 -72 -12z"/>
<path d="M6812 2998 c3 -8 25 -14 54 -15 l49 -2 -30 14 c-38 18 -78 19 -73 3z"/>
<path d="M7815 2995 l-30 -14 39 2 c22 1 41 8 44 15 5 16 -15 15 -53 -3z"/>
<path d="M11785 2990 c-14 -6 2 -9 50 -9 48 0 64 3 50 9 -11 5 -33 9 -50 9
-16 0 -39 -4 -50 -9z"/>
<path d="M3990 2480 l0 -160 50 0 c28 0 50 -3 51 -7 0 -5 46 -312 102 -683
l102 -675 162 -3 162 -2 9 32 c5 18 42 171 83 340 40 169 76 304 80 300 4 -4
39 -140 78 -302 40 -162 76 -312 82 -333 l10 -37 162 2 161 3 92 635 c51 349
96 654 99 677 6 42 6 42 53 45 l47 3 3 163 2 162 -265 0 -265 0 2 -162 3 -163
53 -3 c52 -3 53 -4 48 -30 -3 -15 -19 -151 -36 -302 -17 -151 -34 -288 -38
-304 -6 -24 -22 23 -88 255 l-81 284 -113 3 c-71 2 -117 -1 -124 -8 -6 -6 -43
-135 -82 -288 -82 -320 -71 -325 -109 58 -13 140 -27 272 -30 292 -5 36 -5 37
32 40 l38 3 3 163 2 162 -270 0 -270 0 0 -160z m1317 -1242 c-3 -8 -6 -5 -6 6
-1 11 2 17 5 13 3 -3 4 -12 1 -19z m-1002 -110 c15 -62 32 -119 37 -125 7 -9
44 -13 118 -13 118 0 132 6 144 65 4 17 20 66 37 110 32 87 32 83 -7 -82 l-27
-113 -148 0 c-82 0 -149 2 -149 5 0 5 -26 177 -35 233 -12 71 5 26 30 -80z
m694 -125 c17 -18 224 -18 239 0 6 7 18 46 27 87 8 41 19 89 24 105 9 29 9 29
10 4 1 -14 -3 -50 -8 -80 -5 -30 -12 -75 -16 -101 l-6 -48 -149 0 -148 0 -31
130 c-17 71 -31 133 -30 137 0 4 18 -44 39 -107 21 -63 43 -121 49 -127z"/>
<path d="M5680 2480 l0 -160 60 0 60 0 0 -525 0 -525 -59 0 -60 0 -3 -153 c-2
-83 0 -155 3 -160 3 -4 138 -6 300 -5 l294 3 0 155 0 155 -57 3 -58 3 0 184 0
185 135 0 135 0 0 -185 0 -184 -62 -3 -63 -3 0 -155 0 -155 298 -3 297 -2 0
160 0 160 -55 0 -55 0 0 519 0 520 53 3 52 3 3 163 2 162 -297 -2 -298 -3 0
-160 0 -160 63 -3 62 -3 0 -169 0 -170 -135 0 -135 0 0 170 0 169 58 3 57 3 0
160 0 160 -297 3 -298 2 0 -160z m40 -1245 c-16 -19 -4 -226 13 -237 16 -11
469 -10 485 1 19 12 38 217 21 237 -9 11 -8 14 5 14 14 0 16 -18 16 -140 l0
-140 -285 0 -285 0 0 63 c0 125 12 217 28 217 12 0 12 -3 2 -15z m621 1 c-14
-16 -4 -214 12 -233 7 -10 68 -13 246 -13 130 0 241 4 247 8 6 4 14 43 18 86
4 43 10 91 12 106 4 17 0 33 -11 43 -15 16 -15 17 4 17 20 0 21 -5 21 -140 l0
-140 -285 0 -285 0 0 140 c0 122 2 140 16 140 13 0 14 -3 5 -14z"/>
<path d="M7204 2627 c-2 -7 -3 -80 -2 -162 l3 -150 33 -3 c17 -2 32 -5 32 -8
0 -2 -54 -233 -120 -514 -66 -281 -120 -512 -120 -514 0 -3 -15 -6 -32 -8
l-33 -3 0 -155 0 -155 235 0 235 0 0 155 0 155 -32 3 c-23 2 -33 8 -33 20 1
39 13 43 120 40 103 -3 104 -3 111 -30 6 -25 4 -27 -25 -30 l-31 -3 0 -155 0
-155 235 0 235 0 0 155 0 155 -31 3 -31 3 -53 202 c-230 887 -218 836 -196
839 20 3 21 10 24 166 l2 162 -260 0 c-204 0 -262 -3 -266 -13z m321 -1024 c5
-21 2 -23 -40 -23 -25 0 -45 2 -45 5 0 3 10 45 22 93 l22 87 17 -70 c10 -38
21 -80 24 -92z m-519 -372 c-15 -16 -16 -30 -7 -121 6 -65 15 -106 23 -111 17
-11 339 -11 356 0 19 12 38 217 21 237 -9 11 -8 14 5 14 14 0 16 -18 16 -140
l0 -140 -220 0 -220 0 0 140 c0 137 1 140 22 140 20 0 20 -1 4 -19z m575 5
c-14 -16 -4 -214 12 -233 11 -15 343 -18 365 -4 19 12 38 217 21 237 -9 11 -8
14 5 14 14 0 16 -18 16 -140 l0 -140 -220 0 -220 0 0 140 c0 122 2 140 16 140
13 0 14 -3 5 -14z"/>
<path d="M8065 2627 c-3 -7 -4 -123 -3 -257 l3 -245 148 -3 147 -3 0 101 0
100 40 0 40 0 0 -524 0 -525 -52 -3 -53 -3 0 -155 0 -155 290 0 290 0 3 157 3
158 -56 0 -55 0 0 525 0 525 35 0 35 0 0 -100 0 -100 150 0 150 0 -2 258 -3
257 -553 3 c-441 2 -554 0 -557 -11z m306 -1391 c-14 -16 -4 -214 12 -233 7
-10 68 -13 242 -13 174 0 235 3 243 13 16 20 26 215 12 232 -10 12 -9 15 4 15
14 0 16 -18 16 -140 l0 -140 -275 0 -275 0 0 140 c0 122 2 140 16 140 13 0 14
-3 5 -14z"/>
<path d="M9328 2564 l-78 -76 0 -348 0 -348 81 -76 81 -76 274 0 274 0 0 -185
0 -185 -180 0 -180 0 0 100 0 100 -175 0 -175 0 0 -168 0 -167 93 -93 92 -92
355 0 355 1 88 83 87 83 0 344 0 344 -83 83 -82 82 -273 0 -272 0 0 170 0 170
170 0 169 0 3 -92 3 -93 180 0 180 0 3 170 3 169 -88 88 -88 88 -370 0 -370 0
-77 -76z m28 -1482 c44 -41 89 -78 102 -83 32 -12 634 -12 667 1 29 11 131
104 147 135 6 11 14 44 18 75 l7 55 2 -70 1 -70 -77 -77 -78 -78 -355 0 -355
0 -87 87 -88 88 1 65 2 65 7 -60 c8 -59 9 -61 86 -133z"/>
<path d="M10610 2475 l0 -165 30 0 c18 0 30 -5 30 -13 0 -12 -224 -972 -236
-1009 -3 -9 -17 -18 -32 -20 l-27 -3 -3 -158 -3 -157 233 2 233 3 3 158 3 157
-37 0 c-29 0 -35 3 -30 16 3 9 6 22 6 30 0 11 22 14 109 14 104 0 109 -1 115
-22 9 -35 8 -37 -26 -40 l-33 -3 0 -155 0 -155 235 0 235 0 0 155 0 155 -30 3
-30 3 -129 502 c-72 276 -132 510 -134 519 -3 11 3 17 20 20 l23 3 0 160 0
160 -262 3 -263 2 0 -165z m301 -807 c10 -40 19 -76 19 -80 0 -5 -21 -8 -46
-8 -33 0 -45 4 -42 13 3 6 13 45 23 84 10 40 20 71 23 69 2 -2 12 -37 23 -78z
m-505 -440 c-12 -19 -12 -40 -3 -123 6 -55 16 -103 21 -107 20 -14 352 -9 364
5 16 20 26 215 12 232 -10 12 -9 15 4 15 14 0 16 -18 16 -140 l0 -140 -220 0
-220 0 0 140 c0 134 1 140 20 140 19 0 19 -2 6 -22z m575 8 c-17 -20 2 -225
21 -237 22 -14 354 -11 365 4 16 19 26 217 12 233 -9 11 -8 14 5 14 14 0 16
-18 16 -140 l0 -140 -220 0 -220 0 0 140 c0 122 2 140 16 140 13 0 14 -3 5
-14z"/>
<path d="M11514 2627 c-2 -7 -3 -80 -2 -162 l3 -150 63 -3 62 -3 0 -519 0
-520 -60 0 -60 0 0 -160 0 -160 303 2 302 3 3 158 3 157 -61 0 -60 0 0 190 0
190 193 0 192 0 93 93 92 92 0 315 0 315 -87 87 -88 88 -443 0 c-353 0 -444
-3 -448 -13z m686 -482 l0 -165 -100 0 -100 0 0 165 0 165 100 0 100 0 0 -165z
m-640 -910 c-14 -17 -4 -212 12 -232 8 -10 71 -13 253 -13 182 0 245 3 253 13
16 20 26 215 12 232 -10 12 -9 15 4 15 14 0 16 -18 16 -140 l0 -140 -285 0
-285 0 0 140 c0 122 2 140 16 140 13 0 14 -3 4 -15z"/>
<path d="M12674 2627 c-2 -7 -3 -80 -2 -162 l3 -150 58 -3 57 -3 0 -519 0
-520 -55 0 -55 0 0 -160 0 -160 303 2 302 3 0 155 0 155 -57 3 -58 3 0 189 0
190 193 0 192 0 93 93 92 92 0 315 0 315 -87 87 -88 88 -443 0 c-353 0 -444
-3 -448 -13z m676 -482 l0 -165 -95 0 -95 0 0 165 0 165 95 0 95 0 0 -165z
m-634 -911 c-9 -8 -16 -18 -15 -22 0 -4 6 -54 12 -112 l12 -105 250 -3 c137
-1 253 2 257 6 5 5 14 57 20 116 8 82 7 110 -2 121 -10 12 -9 15 4 15 14 0 16
-18 16 -140 l0 -140 -290 0 -290 0 0 140 c0 135 1 140 21 140 19 0 19 -1 5
-16z"/>
</g>
</svg>
