<?xml version="1.0" standalone="no"?>
<!DOCTYPE svg PUBLIC "-//W3C//DTD SVG 20010904//EN"
 "http://www.w3.org/TR/2001/REC-SVG-20010904/DTD/svg10.dtd">
<svg version="1.0" xmlns="http://www.w3.org/2000/svg"
 width="3000.000000pt" height="2000.000000pt" viewBox="0 0 3000.000000 2000.000000"
 preserveAspectRatio="xMidYMid meet">
<metadata>
Created by potrace 1.16, written by Peter Selinger 2001-2019
</metadata>
<g transform="translate(0.000000,2000.000000) scale(0.100000,-0.100000)"
fill="#000000" stroke="none">
<path d="M17045 15724 c-164 -25 -318 -73 -425 -132 -36 -19 -67 -38 -70 -42
-3 -4 -63 -46 -135 -95 -112 -76 -193 -120 -330 -180 -94 -40 -282 -66 -485
-66 -305 0 -473 28 -1120 186 -630 154 -905 204 -1304 236 -210 16 -610 6
-788 -20 -536 -79 -1002 -236 -1353 -456 -55 -34 -127 -77 -159 -95 -60 -32
-227 -152 -262 -187 -11 -11 -59 -53 -109 -95 -49 -41 -120 -106 -156 -144
-37 -38 -107 -101 -155 -141 -165 -134 -401 -384 -489 -517 -22 -33 -50 -71
-62 -84 -13 -14 -33 -45 -45 -69 -12 -23 -26 -43 -30 -43 -5 0 -6 -5 -3 -10 3
-6 -1 -13 -9 -16 -9 -3 -16 -12 -16 -20 0 -8 -4 -14 -10 -14 -5 0 -10 -6 -10
-14 0 -8 -3 -16 -7 -18 -10 -4 -73 -120 -128 -235 -24 -51 -65 -135 -90 -187
-25 -51 -45 -98 -45 -103 0 -5 -8 -27 -19 -49 -29 -60 -52 -136 -47 -151 3 -7
0 -13 -5 -13 -6 0 -9 -9 -6 -20 3 -11 1 -20 -5 -20 -6 0 -8 -6 -5 -14 3 -8 1
-16 -4 -18 -6 -2 -12 -16 -12 -31 -1 -15 -6 -27 -11 -27 -4 0 -6 -7 -2 -15 3
-8 0 -15 -5 -15 -6 0 -9 -9 -6 -20 3 -11 1 -20 -5 -20 -6 0 -8 -9 -5 -20 3
-11 1 -20 -5 -20 -6 0 -8 -11 -6 -25 3 -14 1 -25 -5 -25 -5 0 -7 -11 -5 -25 3
-13 2 -26 -1 -27 -12 -5 -41 -126 -35 -142 4 -9 1 -16 -6 -16 -7 0 -10 -7 -7
-15 4 -8 -3 -85 -15 -172 -29 -220 -31 -771 -4 -968 10 -71 19 -143 20 -160 1
-16 5 -35 9 -42 4 -6 4 -18 1 -27 -3 -9 -1 -16 5 -16 6 0 10 -8 9 -17 -3 -25
25 -143 33 -143 4 0 5 -9 2 -20 -3 -11 -1 -20 5 -20 6 0 8 -9 5 -20 -3 -11 -1
-20 5 -20 6 0 8 -9 5 -20 -3 -11 0 -20 6 -20 5 0 8 -7 5 -15 -4 -8 -1 -15 5
-15 6 0 8 -6 5 -14 -3 -7 2 -20 10 -29 8 -8 13 -17 11 -19 -3 -2 9 -40 26 -83
17 -44 32 -102 34 -130 13 -184 37 -317 102 -555 66 -246 166 -476 299 -686
31 -49 61 -98 68 -109 81 -142 339 -394 539 -528 80 -53 282 -157 306 -157 8
0 44 -12 80 -26 77 -31 291 -87 418 -108 194 -34 403 -33 403 2 0 8 3 13 6 10
3 -4 7 -42 8 -85 3 -92 37 -233 77 -321 15 -34 24 -60 19 -57 -13 8 -13 -202
0 -341 52 -540 249 -917 600 -1142 77 -49 244 -132 267 -132 10 0 23 -4 28 -9
17 -15 175 -67 345 -115 512 -141 773 -158 1080 -68 110 33 188 69 278 129 47
32 92 60 99 63 21 9 150 176 188 244 85 152 138 325 194 626 17 90 35 168 40
173 7 7 32 -12 73 -55 68 -70 227 -192 329 -253 35 -21 80 -48 100 -62 56 -37
226 -109 373 -157 448 -148 837 -169 1296 -70 152 32 383 98 495 141 223 85
479 226 685 378 63 47 124 85 136 85 12 0 41 -15 65 -33 187 -143 325 -211
554 -275 276 -77 506 -106 790 -99 278 7 457 49 628 147 48 27 96 50 106 50
10 0 47 -21 82 -47 35 -26 109 -74 163 -108 l100 -60 -2 -595 c-2 -327 1 -630
7 -672 8 -75 10 -79 65 -139 31 -34 56 -68 56 -75 0 -7 -20 -25 -45 -40 -50
-29 -49 -22 -18 -134 108 -401 363 -743 703 -943 229 -134 414 -196 735 -247
317 -49 594 -49 890 0 66 11 134 20 151 20 86 0 539 135 687 204 39 19 103 48
141 65 193 87 586 348 746 496 30 28 73 66 95 84 86 72 375 344 375 353 0 5
27 39 60 76 134 151 345 433 397 532 16 30 63 114 104 185 42 72 107 188 145
260 103 194 128 216 394 348 118 58 235 119 260 135 25 16 123 75 218 131 95
57 207 129 250 160 120 89 287 212 357 261 84 60 295 252 425 387 277 287 676
817 964 1281 42 68 76 127 76 132 0 9 203 355 258 439 54 84 154 288 179 366
66 211 131 644 93 620 -5 -3 -10 -1 -10 4 0 6 3 11 8 11 4 0 18 23 31 50 13
28 28 50 33 50 5 0 6 5 3 10 -3 6 -1 10 5 10 6 0 8 5 5 10 -3 6 -1 10 5 10 6
0 8 5 5 10 -3 6 1 13 9 16 9 3 13 10 10 15 -3 5 0 9 5 9 6 0 10 3 9 8 -2 4 14
35 35 68 88 145 122 258 138 465 18 237 -12 487 -76 627 -56 123 -194 232
-348 277 -31 9 -61 14 -65 11 -5 -3 -37 24 -71 59 -163 169 -372 266 -638 296
-225 26 -526 -43 -755 -173 l-68 -38 -60 57 c-68 64 -89 78 -210 141 -47 24
-74 41 -60 37 23 -7 23 -6 -9 31 -59 67 -157 147 -246 200 -277 166 -837 284
-1285 271 -285 -8 -473 -57 -659 -174 -50 -31 -97 -53 -113 -53 -15 0 -53 12
-85 26 -216 96 -523 165 -868 194 -431 36 -784 -31 -1044 -197 -76 -49 -106
-47 -172 8 -248 209 -451 312 -727 371 -91 20 -136 23 -302 23 -185 0 -202 -2
-340 -34 -80 -18 -185 -46 -235 -63 -120 -39 -384 -170 -519 -258 -61 -38
-118 -70 -127 -70 -10 0 -55 14 -101 31 -175 65 -522 140 -783 169 -131 14
-356 12 -460 -5 -179 -29 -344 -90 -480 -178 -27 -17 -91 -74 -141 -124 -50
-51 -98 -93 -107 -93 -10 0 -50 21 -90 48 -90 59 -85 56 -125 89 l-33 28 20
113 c34 185 44 435 38 902 -7 518 -23 657 -108 934 -66 215 -215 467 -378 639
-126 133 -344 252 -534 291 -78 16 -242 27 -292 20z m194 -946 c97 -47 237
-221 292 -363 16 -39 33 -112 40 -161 10 -79 9 -100 -9 -187 -60 -289 -292
-524 -672 -680 -166 -68 -437 -133 -655 -158 -149 -17 -525 -17 -720 0 -145
13 -165 12 -216 -3 -95 -27 -134 -90 -160 -256 -16 -105 -107 -492 -154 -655
-79 -273 -300 -919 -455 -1330 -10 -27 -42 -112 -70 -189 -28 -76 -55 -148
-60 -160 -27 -64 -218 -603 -288 -811 -234 -699 -363 -1188 -392 -1490 -6 -66
-15 -164 -21 -218 -13 -141 -54 -212 -147 -255 -101 -46 -230 -41 -512 18
-251 53 -501 130 -625 193 -217 109 -317 267 -301 477 28 363 182 898 439
1525 70 172 227 546 247 590 43 96 70 157 70 160 0 3 30 69 66 147 36 79 90
197 119 263 28 66 61 140 73 165 36 81 313 721 389 900 208 489 328 874 340
1085 10 191 -27 265 -170 336 -102 52 -499 201 -635 239 -348 98 -659 75 -938
-70 -158 -83 -234 -139 -375 -280 -263 -263 -438 -561 -588 -1005 -77 -231
-118 -419 -147 -690 -21 -192 -15 -638 10 -785 43 -251 106 -421 216 -585 76
-113 93 -153 93 -217 0 -46 -5 -65 -28 -98 -59 -85 -139 -108 -309 -91 -444
47 -786 251 -1023 610 -239 362 -331 927 -237 1451 95 526 291 970 614 1387
272 352 616 629 1015 818 297 141 628 233 995 276 122 14 529 14 690 0 393
-35 593 -73 1490 -286 501 -119 913 -159 1290 -124 430 39 809 179 1075 400
116 95 179 129 244 129 36 0 70 -8 100 -22z m4951 -2422 c138 -25 303 -111
419 -219 162 -152 274 -390 257 -550 -15 -145 -63 -261 -358 -852 -292 -586
-390 -820 -432 -1025 -25 -126 5 -216 82 -241 116 -38 336 26 530 154 73 49
156 129 198 191 31 45 144 307 274 632 51 126 109 270 130 319 100 240 262
687 301 833 11 43 26 141 34 220 19 200 46 248 166 301 191 85 956 24 1191
-95 65 -33 137 -105 168 -169 22 -44 25 -63 24 -155 -1 -137 -10 -169 -188
-664 -53 -147 -71 -240 -49 -261 46 -47 193 107 380 400 110 172 384 631 443
742 55 104 118 176 184 211 l51 27 220 0 c357 -1 713 -58 877 -141 71 -36 143
-107 175 -173 24 -49 28 -67 27 -141 -3 -243 -180 -713 -664 -1760 -169 -366
-189 -414 -196 -475 -6 -45 -3 -56 15 -74 45 -45 140 -15 297 94 105 72 293
216 358 275 108 96 200 184 287 275 317 331 483 551 933 1240 164 251 322 355
563 370 200 12 312 -131 240 -305 -44 -106 -446 -771 -615 -1020 -462 -677
-835 -1081 -1303 -1412 -322 -228 -665 -420 -1069 -598 -91 -40 -187 -88 -215
-105 -99 -63 -103 -69 -320 -487 -196 -377 -365 -614 -638 -894 -285 -293
-648 -570 -934 -713 -486 -243 -1080 -342 -1563 -260 -284 48 -447 115 -610
249 -162 134 -244 276 -273 471 -9 63 -8 94 6 175 56 341 239 594 614 851 219
149 724 399 1303 643 102 43 255 109 340 148 85 38 227 94 315 124 188 66 227
83 278 121 71 55 113 182 68 207 -52 27 -104 7 -283 -107 -230 -147 -417 -204
-668 -204 -181 0 -333 55 -494 180 -105 81 -138 96 -211 96 -53 -1 -77 -9
-200 -67 -193 -92 -362 -145 -600 -190 -101 -19 -154 -22 -330 -22 -192 0
-219 2 -320 26 -283 68 -479 196 -625 408 -155 227 -203 478 -155 820 9 63 19
160 22 215 5 93 4 101 -16 119 -17 15 -26 17 -44 9 -40 -19 -106 -83 -151
-146 -106 -149 -282 -485 -342 -652 -27 -76 -28 -87 -26 -239 2 -181 -7 -215
-73 -279 -65 -63 -110 -72 -350 -71 -602 3 -931 135 -1074 431 -41 84 -59 151
-76 281 -17 130 -34 177 -69 193 -56 26 -126 -23 -232 -163 -164 -216 -408
-438 -669 -611 -352 -231 -784 -371 -1190 -384 -192 -6 -287 3 -470 47 -227
54 -410 137 -581 263 -136 100 -211 173 -287 275 -234 315 -295 651 -201 1110
166 813 674 1547 1269 1836 213 104 462 155 665 134 128 -12 276 -12 385 2
200 25 539 -40 776 -148 235 -108 466 -299 594 -492 111 -166 158 -295 194
-535 25 -165 37 -214 59 -237 25 -29 53 -21 103 31 58 60 121 186 210 421 80
211 96 257 133 390 8 30 22 130 30 221 8 92 21 180 29 199 21 50 64 92 122
120 47 23 60 25 200 24 163 -1 384 -27 594 -70 289 -59 384 -110 481 -259 81
-125 157 -124 300 1 305 265 548 416 796 493 185 58 316 72 454 47z m-9599
-383 c-10 -27 -51 -122 -91 -213 -40 -91 -85 -194 -100 -230 -15 -36 -58 -129
-94 -208 -36 -78 -66 -147 -66 -153 0 -5 -14 -42 -32 -80 -29 -64 -33 -68 -41
-47 -33 88 -26 224 20 352 34 97 137 304 169 341 14 17 46 60 70 97 25 37 75
94 112 127 37 33 68 61 69 61 2 0 -6 -21 -16 -47z"/>
<path d="M16392 10378 c-73 -51 -128 -248 -139 -502 -9 -223 20 -342 97 -393
45 -31 127 -31 189 -1 96 46 318 303 362 419 43 112 14 172 -136 287 -33 25
-90 74 -127 109 -111 103 -180 126 -246 81z"/>
<path d="M23785 7521 c-115 -40 -415 -176 -672 -302 -401 -199 -583 -344 -583
-467 0 -60 44 -105 118 -121 113 -24 318 -9 469 35 248 71 449 212 650 454
200 241 256 361 194 411 -32 26 -82 24 -176 -10z"/>
<path d="M4425 15650 c-132 -10 -272 -37 -375 -74 -25 -9 -55 -16 -67 -16 -29
0 -126 -25 -152 -40 -11 -6 -40 -15 -63 -19 -45 -10 -175 -59 -241 -92 -22
-10 -45 -19 -53 -19 -9 0 -41 -13 -72 -29 -31 -16 -86 -43 -122 -60 -70 -34
-112 -57 -157 -86 -15 -11 -46 -28 -68 -40 -22 -11 -74 -43 -115 -71 -41 -27
-95 -62 -120 -76 -25 -15 -70 -48 -100 -75 -30 -27 -71 -60 -90 -73 -54 -37
-284 -244 -390 -351 -186 -188 -411 -462 -524 -637 -27 -43 -77 -120 -111
-172 -34 -52 -72 -115 -85 -140 -12 -25 -50 -90 -83 -145 -106 -177 -187 -349
-208 -445 -5 -25 -14 -139 -19 -255 -12 -281 -12 -283 -163 -517 -34 -53 -73
-116 -87 -139 -14 -23 -53 -85 -88 -137 -34 -52 -65 -107 -69 -121 -3 -14 -9
-31 -14 -36 -12 -16 -57 -145 -64 -185 -3 -19 -10 -89 -15 -155 -4 -66 -17
-230 -29 -365 -11 -135 -25 -301 -31 -370 -26 -321 -21 -895 10 -1260 32 -372
98 -748 195 -1105 9 -33 45 -145 79 -250 118 -353 115 -338 136 -643 11 -157
26 -260 40 -277 4 -5 13 -30 20 -55 30 -111 206 -425 339 -605 16 -22 45 -63
65 -90 59 -86 170 -227 237 -301 35 -39 106 -118 157 -177 142 -163 442 -425
670 -585 67 -48 130 -91 140 -97 10 -5 49 -30 87 -54 78 -50 160 -96 250 -141
33 -17 67 -35 75 -40 23 -15 140 -66 190 -83 25 -9 77 -28 115 -42 80 -30 168
-58 275 -87 187 -50 290 -72 413 -88 38 -5 85 -14 105 -19 20 -5 113 -15 206
-22 134 -10 213 -10 385 0 217 12 275 19 516 68 170 33 186 37 275 63 41 11
89 25 105 29 17 5 50 16 75 25 25 9 92 33 150 52 58 20 152 60 210 88 202 101
339 174 373 200 19 14 37 26 41 26 31 0 389 270 547 412 112 102 355 351 398
408 14 19 52 64 84 100 131 145 277 354 472 675 45 74 205 387 205 400 0 4 12
32 26 63 14 31 32 71 39 87 24 56 55 190 65 288 12 116 39 174 140 307 126
164 248 539 280 860 6 63 16 156 21 207 14 143 11 542 -7 735 -34 379 -89 585
-220 821 -101 184 -182 295 -277 384 -37 34 -63 65 -58 68 5 3 26 36 47 73 21
37 53 88 71 114 18 26 33 50 33 53 0 4 20 36 43 73 94 144 117 182 141 236 14
31 26 62 26 69 0 7 4 17 9 23 22 24 31 159 31 495 0 331 -8 456 -30 484 -4 6
-10 39 -13 74 -4 43 -12 72 -26 90 -11 14 -27 40 -35 56 -26 57 -79 96 -137
103 l-53 7 -12 70 c-6 39 -21 86 -32 105 -11 19 -23 50 -27 67 -4 18 -11 35
-16 39 -5 3 -21 29 -35 57 -31 62 -145 251 -215 357 -27 41 -52 82 -56 90 -3
8 -22 35 -42 60 -20 24 -40 52 -46 62 -15 27 -66 99 -95 134 -14 18 -54 69
-90 114 -198 251 -521 579 -702 713 -42 32 -80 62 -83 67 -8 14 -182 130 -193
130 -5 0 -17 9 -27 20 -10 11 -22 20 -27 20 -5 0 -24 11 -41 24 -33 25 -73 49
-167 98 -30 16 -62 36 -71 44 -8 8 -20 14 -25 14 -5 0 -53 22 -107 49 -54 27
-110 52 -125 56 -15 4 -40 13 -57 20 -82 38 -185 77 -228 85 -27 5 -63 16 -80
24 -45 19 -110 36 -139 36 -14 0 -41 6 -59 14 -78 32 -242 64 -399 76 -123 10
-641 10 -785 0z m605 -159 l-55 -7 55 -7 c30 -4 129 -14 220 -23 91 -9 192
-24 225 -34 33 -10 94 -23 135 -30 41 -7 84 -17 94 -22 10 -6 55 -20 100 -33
45 -13 113 -35 151 -50 39 -15 95 -36 125 -47 51 -18 246 -108 280 -129 8 -5
40 -22 70 -39 30 -17 64 -36 75 -42 11 -7 36 -22 55 -33 19 -12 62 -39 95 -60
33 -21 78 -50 100 -64 22 -14 60 -42 85 -62 25 -20 78 -61 118 -92 320 -242
734 -711 972 -1102 210 -345 222 -368 218 -398 -3 -19 -6 -17 -28 17 -14 22
-31 51 -39 65 -16 31 -31 54 -144 228 -200 306 -477 601 -788 838 -134 103
-201 150 -276 196 -40 24 -97 58 -125 76 -29 18 -76 43 -104 57 -28 13 -55 29
-58 35 -4 6 -14 11 -23 11 -9 0 -39 11 -67 24 -111 53 -185 84 -217 91 -19 4
-48 15 -65 25 -17 10 -51 21 -75 25 -24 4 -60 14 -79 22 -41 18 -228 60 -320
73 -206 29 -296 35 -485 35 -136 0 -229 -5 -265 -13 -30 -7 -100 -17 -156 -22
-55 -5 -123 -18 -150 -28 -27 -11 -74 -23 -104 -27 -55 -7 -242 -74 -335 -119
-27 -14 -90 -44 -140 -67 -95 -44 -270 -154 -395 -248 -87 -65 -210 -182 -210
-199 0 -7 -5 -12 -11 -12 -16 0 -101 -90 -96 -103 2 -6 13 0 24 12 11 12 34
30 51 39 16 9 56 34 88 55 130 84 126 82 174 107 14 8 48 26 75 42 28 15 88
46 135 68 47 23 96 47 110 55 64 34 305 122 385 140 33 8 79 21 102 29 23 8
75 19 116 25 41 6 85 14 98 19 64 24 262 35 549 29 267 -5 306 -8 410 -31 63
-14 124 -26 135 -26 28 1 359 -107 421 -136 28 -13 56 -24 62 -24 11 0 103
-43 162 -76 14 -7 48 -25 75 -38 28 -14 57 -30 65 -35 8 -6 69 -42 134 -81
128 -75 148 -90 374 -276 149 -122 331 -308 458 -465 69 -86 86 -108 234 -314
43 -60 92 -129 109 -152 53 -72 41 -87 -81 -110 -205 -37 -413 -141 -364 -182
33 -28 213 -42 584 -48 310 -5 375 -8 379 -20 3 -8 -7 -40 -22 -71 -15 -31
-32 -68 -38 -82 -6 -14 -19 -37 -30 -52 -43 -64 -142 -263 -192 -383 -54 -132
-68 -178 -106 -340 -36 -157 -191 -420 -282 -480 -68 -44 -94 -45 -1927 -44
-954 1 -1782 4 -1840 8 -129 7 -261 -8 -289 -33 -40 -36 -65 -152 -77 -361 -4
-66 -8 -622 -8 -1235 l-1 -1115 -28 -75 c-15 -41 -43 -123 -62 -181 -26 -80
-43 -114 -69 -141 -34 -35 -37 -36 -138 -43 -57 -4 -215 -5 -353 -3 -226 3
-253 5 -278 22 -36 24 -70 92 -96 187 -10 41 -31 112 -46 159 l-26 85 1 1100
c1 1050 -7 1440 -29 1522 -17 60 -50 91 -112 104 -77 17 -525 7 -565 -12 -56
-27 -87 -125 -108 -339 -28 -273 -16 -763 23 -1030 49 -328 122 -594 248 -915
147 -371 344 -710 553 -951 125 -144 306 -342 364 -397 64 -61 245 -207 334
-268 89 -63 261 -165 292 -174 14 -4 36 -15 50 -25 14 -10 36 -21 50 -25 14
-4 36 -14 49 -22 23 -15 85 -38 221 -83 36 -12 81 -28 100 -36 32 -14 125 -35
290 -69 67 -14 486 -39 500 -30 5 3 74 10 155 15 80 5 181 19 223 29 42 11
106 25 141 30 35 6 87 19 115 29 48 18 92 34 196 69 71 24 270 117 345 161 17
10 53 30 80 46 59 34 134 84 190 125 22 17 54 38 70 47 17 9 46 31 67 50 39
35 78 59 78 48 0 -22 -57 -86 -192 -217 -84 -82 -166 -160 -183 -173 -16 -13
-47 -39 -68 -56 -20 -18 -55 -46 -77 -63 -22 -16 -72 -55 -110 -86 -38 -31
-81 -60 -96 -63 -15 -4 -41 -18 -57 -32 -16 -13 -33 -24 -39 -24 -5 0 -22 -8
-36 -19 -73 -52 -415 -205 -527 -236 -212 -59 -389 -100 -470 -110 -27 -4 -63
-8 -80 -10 -16 -2 -93 -7 -170 -11 -77 -3 -143 -8 -146 -10 -12 -7 -327 -6
-431 1 -107 7 -158 3 -158 -15 0 -5 15 -13 33 -19 17 -5 52 -17 77 -26 25 -9
87 -21 138 -26 51 -6 121 -19 155 -29 52 -17 92 -20 252 -20 125 0 215 5 265
15 41 8 131 18 200 23 84 6 136 15 158 26 19 10 66 20 105 23 40 3 89 14 110
25 21 10 63 24 95 29 31 6 69 20 84 30 14 11 47 23 73 28 25 5 56 18 69 30 12
11 31 21 42 21 11 0 35 11 54 23 19 13 49 27 66 30 18 3 47 16 67 29 30 20
121 74 215 128 84 48 262 179 262 192 0 5 12 14 28 21 33 14 87 55 156 118 28
25 74 63 101 84 28 21 57 48 65 60 8 12 54 64 102 114 177 187 314 369 427
567 37 65 71 144 71 165 0 5 -592 9 -1325 9 -883 0 -1341 4 -1372 11 -88 19
-111 55 -119 179 -4 64 -8 78 -32 103 -29 31 -180 111 -231 122 -40 9 -81 42
-81 66 0 11 18 38 39 62 21 23 58 78 81 121 23 44 57 98 74 122 17 23 63 95
101 159 39 65 84 136 102 159 18 22 39 55 47 71 7 17 39 71 70 120 30 50 72
118 92 153 22 39 47 68 63 74 18 8 436 13 1361 17 l1335 6 57 28 c57 28 73 47
63 77 -8 25 -75 58 -141 69 -34 5 -474 10 -1060 10 -551 1 -1037 6 -1080 11
-292 34 -495 107 -589 212 -48 53 -59 79 -61 144 0 34 -3 65 -6 70 -3 5 -8 21
-11 35 -4 14 -30 57 -58 95 -28 38 -62 89 -75 114 -13 25 -47 77 -74 115 -74
103 -135 219 -164 310 -28 89 -32 125 -14 143 15 15 3267 17 3418 2 164 -16
321 -61 485 -141 33 -16 64 -29 68 -29 5 0 52 -29 105 -64 167 -111 299 -294
358 -496 45 -149 80 -431 70 -545 -4 -38 -13 -149 -21 -245 -22 -268 -52 -453
-105 -637 -32 -112 -132 -329 -172 -373 -26 -28 -68 -102 -68 -119 0 -6 -41
-94 -90 -195 -50 -102 -90 -187 -90 -189 0 -3 -40 -88 -90 -191 -97 -203 -113
-247 -135 -382 -11 -71 -25 -111 -70 -199 -74 -148 -306 -467 -450 -620 -11
-12 -59 -65 -108 -117 -108 -118 -210 -218 -302 -295 -39 -32 -92 -76 -119
-98 -126 -105 -309 -228 -459 -309 -37 -20 -82 -45 -101 -55 -18 -10 -68 -34
-112 -54 -43 -19 -104 -46 -135 -60 -31 -15 -92 -36 -135 -47 -43 -12 -83 -23
-89 -24 -5 -2 -14 -5 -20 -6 -5 -1 -20 -6 -33 -11 -27 -10 -46 -14 -179 -36
-89 -15 -112 -15 -185 -4 -46 8 -91 18 -100 22 -10 6 -18 5 -20 -3 -3 -7 -13
-3 -27 11 -16 16 -26 20 -35 12 -10 -8 -18 -6 -31 9 -12 14 -22 17 -30 10 -7
-6 -18 -5 -31 4 -43 30 -144 46 -292 46 -81 0 -174 4 -207 9 -33 6 -82 12
-110 15 -27 3 -61 8 -75 12 -40 10 -131 24 -177 28 -23 2 -46 7 -52 10 -6 4
-15 5 -20 2 -5 -3 -31 1 -59 9 -27 8 -74 20 -103 25 -98 19 -370 106 -459 147
-30 14 -63 27 -72 28 -25 5 -204 92 -273 133 -84 50 -322 208 -370 246 -22 18
-65 49 -95 71 -77 54 -159 126 -406 356 -77 72 -388 433 -446 519 -27 39 -102
146 -133 190 -110 154 -275 451 -275 496 0 9 -9 27 -20 41 -11 14 -20 32 -20
40 0 15 -5 28 -54 135 -29 64 -33 100 -11 118 22 18 19 35 -20 134 -45 115
-116 339 -155 489 -33 129 -104 479 -114 567 -4 30 -13 100 -21 155 -54 395
-70 609 -70 940 0 239 16 485 47 715 15 115 26 130 100 130 59 0 161 14 226
31 31 9 42 17 42 31 0 31 -36 74 -83 98 -23 11 -49 25 -57 29 -15 8 -134 45
-195 59 -19 5 -31 15 -33 28 -2 17 119 219 355 589 28 44 99 160 158 257 137
227 137 228 183 228 20 0 66 8 102 19 71 20 77 31 41 81 -26 37 -121 100 -150
100 -14 0 -43 7 -66 15 -22 8 -59 19 -82 25 -57 14 -56 34 7 151 28 51 50 94
50 96 0 6 128 232 154 273 122 189 263 388 351 494 162 197 425 461 575 580
25 20 85 67 133 106 109 87 207 151 430 283 21 12 54 32 73 44 19 13 46 26 61
29 14 4 60 25 102 46 74 39 124 59 286 119 238 87 505 148 737 169 68 6 141
13 163 17 l40 7 -45 7 c-25 3 63 6 195 6 132 0 215 -3 185 -6z m-2795 -5013
c3 -7 4 -353 3 -768 l-3 -755 -57 175 c-75 227 -95 298 -113 393 -8 44 -17 82
-19 85 -2 4 -14 84 -26 177 -20 149 -22 199 -17 400 3 127 10 244 15 260 8 30
9 30 93 36 46 3 92 6 102 7 10 1 20 -4 22 -10z m1772 -833 c23 -33 73 -95 112
-138 39 -42 71 -83 70 -90 0 -6 -11 -30 -24 -52 -14 -22 -33 -58 -44 -80 -24
-49 -112 -192 -163 -266 l-38 -54 0 410 0 410 23 -40 c13 -22 42 -67 64 -100z
m-180 -2218 c38 -28 77 -47 111 -55 39 -9 283 -12 890 -12 l837 -1 -50 -24
c-27 -13 -58 -24 -67 -24 -10 -1 -37 -10 -60 -20 -24 -11 -63 -25 -88 -31 -25
-7 -67 -21 -95 -30 -27 -10 -75 -21 -105 -25 -30 -3 -84 -15 -120 -25 -123
-34 -637 -33 -760 2 -30 9 -80 19 -110 23 -30 4 -73 15 -95 24 -22 10 -62 23
-90 30 -27 7 -68 21 -90 31 -22 9 -58 23 -80 30 -22 7 -58 21 -79 31 -22 11
-44 19 -48 19 -5 0 -20 8 -32 17 l-23 18 41 32 c23 18 44 33 48 33 4 0 34 -19
65 -43z"/>
<path d="M4785 14353 c-90 -4 -358 -34 -430 -47 -229 -44 -371 -88 -569 -177
-176 -79 -433 -237 -579 -358 -95 -78 -117 -91 -158 -91 -19 0 -40 -5 -46 -11
-5 -5 -35 -13 -66 -16 -53 -5 -60 -10 -104 -58 -106 -115 -165 -194 -321 -432
-197 -298 -195 -293 -134 -311 97 -29 276 -32 2272 -32 1946 0 2275 4 2369 30
51 13 56 22 34 58 -39 62 -220 285 -318 390 -22 24 -52 63 -66 87 -14 24 -38
54 -53 66 -28 22 -70 104 -61 119 2 4 -5 16 -16 26 -12 10 -28 32 -36 49 -18
35 -146 161 -240 236 -48 38 -174 119 -258 165 -253 138 -404 193 -728 264
-26 6 -100 15 -165 20 -64 6 -153 14 -197 18 -44 4 -102 6 -130 5z m300 -1174
c180 -26 374 -76 503 -130 12 -5 32 -13 45 -18 75 -29 73 -30 -159 -30 -127
-1 -543 -4 -925 -7 -613 -5 -691 -4 -664 9 38 19 178 72 230 88 22 6 50 15 61
20 20 7 94 25 199 49 36 8 169 25 270 34 65 6 364 -4 440 -15z"/>
<path d="M12000 5909 c-185 -14 -575 -78 -649 -107 -17 -7 -15 -21 25 -241 24
-128 45 -235 47 -237 2 -3 27 1 56 7 28 6 55 9 60 7 5 -2 -24 -59 -66 -128
-399 -659 -811 -1456 -1108 -2144 -42 -98 -75 -180 -72 -182 14 -14 471 54
684 102 425 95 821 275 1175 534 126 92 396 357 507 499 238 301 433 654 520
939 44 143 54 209 49 324 -6 124 -28 194 -94 291 -128 188 -348 286 -742 332
-137 16 -213 17 -392 4z m282 -520 c175 -19 267 -65 304 -152 27 -66 23 -201
-11 -302 -77 -235 -340 -655 -543 -867 -157 -163 -311 -281 -528 -402 -108
-60 -304 -150 -311 -142 -16 16 293 639 469 946 139 242 268 451 402 650 50
74 99 146 109 161 l17 27 -100 43 c-56 23 -103 46 -106 50 -5 9 172 2 298 -12z"/>
<path d="M15909 5835 c-358 -64 -696 -171 -831 -262 -24 -16 -49 -33 -57 -37
-12 -8 69 154 122 242 10 18 18 35 16 37 -4 3 -321 -14 -928 -50 -145 -9 -321
-22 -390 -30 -161 -19 -397 -56 -412 -66 -18 -11 57 -319 77 -319 8 0 14 -2
14 -5 0 -3 -53 -106 -117 -228 -194 -369 -434 -871 -614 -1286 -49 -112 -87
-206 -85 -209 4 -4 1689 386 1691 391 62 128 152 353 142 355 -7 1 -253 -51
-547 -116 -294 -66 -537 -118 -539 -116 -5 4 177 415 190 428 4 5 164 32 354
61 190 29 347 54 349 56 5 6 146 344 146 349 0 3 -149 -13 -332 -37 -183 -23
-333 -41 -334 -40 -1 1 48 101 109 222 l112 220 439 33 c241 18 441 31 443 28
2 -2 -11 -25 -30 -50 -76 -99 -119 -230 -120 -366 0 -73 4 -95 28 -148 30 -68
87 -127 154 -161 22 -12 90 -39 150 -60 129 -45 192 -80 243 -132 43 -45 54
-83 37 -138 -25 -85 -127 -170 -276 -230 -134 -53 -532 -158 -751 -198 -24 -4
-44 -12 -44 -16 0 -5 44 -79 97 -166 90 -146 99 -157 124 -154 361 57 793 194
991 314 120 74 253 209 307 314 59 115 77 183 70 275 -11 171 -87 255 -340
379 -127 61 -176 91 -216 130 -45 44 -51 55 -51 91 0 54 28 106 85 159 58 54
127 85 252 116 117 29 379 70 553 87 69 6 126 13 128 14 2 1 -45 79 -104 173
l-106 171 -37 -1 c-20 0 -93 -11 -162 -24z"/>
<path d="M19785 5785 c-154 -25 -386 -99 -517 -166 -72 -36 -199 -122 -271
-184 -289 -245 -510 -705 -482 -1005 28 -297 221 -523 505 -589 231 -54 448
-28 699 81 l94 41 144 -47 c80 -26 146 -46 147 -44 2 1 14 35 26 73 35 106
117 307 220 538 51 114 91 209 89 211 -8 7 -440 196 -448 196 -13 0 -183 -382
-224 -502 -9 -25 -88 -80 -197 -137 -196 -102 -313 -108 -426 -22 -153 117
-176 408 -51 656 130 259 424 503 667 553 153 32 267 -10 347 -126 38 -56 52
-91 101 -259 7 -21 25 -11 277 148 149 94 271 172 273 173 7 7 -163 177 -227
228 -84 67 -245 149 -341 173 -92 23 -294 28 -405 10z"/>
<path d="M18660 5764 c-134 -13 -247 -28 -252 -32 -11 -11 -264 -544 -383
-809 -60 -133 -113 -237 -116 -230 -4 7 -66 243 -138 526 -72 283 -132 515
-134 517 -3 4 -459 -144 -466 -151 -2 -3 10 -70 28 -149 l34 -144 -220 -438
c-301 -602 -585 -1226 -560 -1231 18 -4 557 123 566 133 5 5 43 90 86 189 134
312 288 646 296 638 4 -5 44 -165 89 -358 46 -192 84 -351 85 -353 1 -1 133
28 293 65 l291 68 77 190 c168 414 451 1057 638 1449 36 76 66 141 66 142 0 5
1 5 -280 -22z"/>
<path d="M16872 5720 c-134 -10 -245 -20 -247 -22 -14 -13 -361 -734 -463
-958 -147 -326 -435 -1001 -428 -1007 4 -4 571 129 578 135 3 4 24 52 46 107
162 407 486 1123 717 1586 47 93 85 171 85 174 0 6 14 7 -288 -15z"/>
</g>
</svg>
