<?xml version="1.0" standalone="no"?>
<!DOCTYPE svg PUBLIC "-//W3C//DTD SVG 20010904//EN"
 "http://www.w3.org/TR/2001/REC-SVG-20010904/DTD/svg10.dtd">
<svg version="1.0" xmlns="http://www.w3.org/2000/svg"
 width="3000.000000pt" height="3000.000000pt" viewBox="0 0 3000.000000 3000.000000"
 preserveAspectRatio="xMidYMid meet">
<metadata>
Created by potrace 1.16, written by Peter Selinger 2001-2019
</metadata>
<g transform="translate(0.000000,3000.000000) scale(0.100000,-0.100000)"
fill="#000000" stroke="none">
<path d="M5445 21770 c-3 -5 -24 -10 -45 -10 -160 0 -912 -130 -1015 -175 -16
-8 -86 -30 -155 -50 -188 -55 -372 -115 -395 -130 -11 -7 -86 -38 -165 -70
-126 -50 -596 -277 -610 -294 -3 -4 -68 -42 -145 -85 -77 -44 -144 -84 -150
-91 -5 -6 -68 -49 -140 -94 -71 -46 -134 -89 -140 -96 -5 -7 -53 -43 -105 -80
-52 -38 -111 -83 -130 -100 -19 -18 -62 -54 -95 -80 -163 -128 -565 -525 -691
-682 -41 -50 -78 -93 -82 -95 -10 -4 -135 -168 -234 -306 -150 -209 -173 -243
-200 -292 -15 -28 -47 -81 -71 -118 -77 -117 -276 -495 -312 -592 -7 -19 -33
-78 -57 -130 -50 -105 -76 -174 -139 -360 -23 -69 -45 -129 -49 -135 -19 -23
-121 -422 -156 -610 -10 -49 -21 -92 -25 -95 -8 -6 -52 -306 -76 -525 -25
-230 -25 -950 0 -1180 25 -226 68 -519 77 -525 4 -3 11 -25 15 -50 22 -139
146 -631 165 -655 4 -5 19 -44 33 -85 65 -197 113 -324 158 -418 27 -56 49
-106 49 -110 0 -3 25 -58 55 -122 49 -104 109 -253 122 -305 3 -11 11 -34 19
-52 8 -17 14 -36 14 -42 0 -6 9 -28 20 -48 11 -21 20 -43 20 -50 0 -8 4 -21 9
-31 6 -9 22 -46 36 -82 15 -36 33 -77 40 -91 8 -14 24 -56 36 -95 11 -38 29
-89 39 -114 10 -25 21 -87 24 -140 23 -336 28 -388 51 -461 21 -66 82 -205
118 -264 34 -58 73 -122 84 -140 7 -11 16 -28 19 -37 3 -10 9 -18 13 -18 4 0
15 -15 26 -32 10 -18 24 -37 32 -41 7 -4 13 -14 13 -22 0 -7 4 -15 8 -17 4 -2
23 -24 42 -50 18 -27 37 -48 42 -48 4 0 8 -5 8 -11 0 -7 10 -22 22 -34 13 -12
52 -55 88 -95 36 -41 75 -85 87 -98 13 -12 23 -25 23 -27 0 -8 98 -113 195
-210 111 -110 317 -305 322 -305 2 0 21 -17 42 -37 68 -67 105 -99 146 -129
22 -16 42 -32 43 -36 2 -5 10 -8 17 -8 7 0 15 -7 19 -15 3 -8 12 -15 20 -15 8
0 16 -3 18 -7 4 -10 75 -63 83 -63 8 0 89 -63 93 -72 2 -5 10 -8 17 -8 7 0 15
-3 17 -7 4 -11 128 -93 139 -93 5 0 9 -4 9 -8 0 -5 16 -17 35 -28 19 -10 35
-21 35 -25 0 -4 8 -9 18 -12 9 -4 35 -17 57 -31 22 -14 78 -47 125 -73 47 -26
91 -53 98 -60 7 -7 20 -13 27 -13 7 0 20 -6 27 -13 7 -6 49 -29 93 -50 44 -22
89 -44 100 -50 49 -26 184 -89 260 -122 73 -31 100 -42 135 -59 19 -9 49 -20
65 -25 17 -5 62 -22 100 -36 39 -15 86 -30 105 -35 19 -4 78 -21 130 -38 52
-16 127 -37 165 -46 39 -10 102 -26 140 -36 39 -10 104 -26 145 -34 41 -9 116
-24 165 -35 215 -46 466 -79 740 -97 285 -19 716 -5 950 31 55 9 145 23 200
31 199 31 429 78 510 104 33 11 68 20 79 20 10 0 39 6 65 14 25 8 80 24 121
36 41 11 96 28 121 35 26 8 53 15 60 15 15 0 109 34 152 56 16 8 33 14 39 14
6 0 32 9 57 21 84 38 125 56 261 114 121 52 217 96 275 128 11 6 45 23 75 39
30 15 73 39 95 52 22 14 52 32 68 40 15 9 39 23 55 32 15 8 39 23 53 32 15 9
53 32 85 51 33 19 61 37 64 41 3 3 23 17 45 30 22 13 56 36 75 50 19 15 80 60
135 100 55 41 102 78 103 82 2 4 10 8 17 8 7 0 15 7 19 15 3 8 12 15 21 15 8
0 15 4 15 9 0 5 26 28 57 52 32 24 75 60 96 81 21 21 40 38 42 38 11 0 499
479 545 535 14 17 43 53 65 80 22 28 42 52 45 55 15 14 192 243 215 279 15 23
32 41 36 41 5 0 9 5 9 10 0 6 4 16 10 23 43 53 60 76 60 81 0 3 16 28 35 55
19 26 35 51 35 55 0 3 15 28 33 54 35 52 44 68 91 152 16 30 40 73 53 95 42
75 110 220 125 270 9 28 26 111 38 185 21 127 40 190 65 216 6 6 35 41 65 78
29 36 57 66 62 66 4 0 8 6 8 14 0 8 7 16 15 20 8 3 15 10 15 15 0 6 10 21 23
35 12 13 29 37 37 53 8 15 17 30 20 33 11 11 67 108 83 145 10 22 27 57 38 78
10 22 19 43 19 49 0 5 6 24 14 41 55 125 108 356 143 622 26 198 26 735 0 910
-9 66 -19 136 -22 155 l-4 35 102 1 c56 1 121 7 144 13 l43 12 -54 57 c-65 68
-117 135 -140 179 l-16 32 -58 -34 c-31 -19 -76 -38 -99 -43 -36 -8 -46 -6
-72 12 -67 47 -111 179 -116 355 l-3 104 -79 111 c-81 116 -253 296 -326 343
-69 45 -101 63 -119 69 -10 4 -18 10 -18 14 0 13 53 90 62 90 4 0 8 4 8 10 0
11 90 133 103 138 4 2 7 10 7 17 0 7 7 15 15 19 8 3 15 10 15 16 0 5 6 18 14
27 47 58 205 264 225 293 13 19 29 40 35 45 16 15 69 112 101 188 31 71 38
153 44 472 l6 320 59 -175 c32 -96 65 -190 73 -208 8 -18 31 -100 52 -182 21
-83 40 -153 43 -155 8 -9 57 122 53 141 -46 212 -130 531 -145 549 -4 6 -26
66 -49 135 -63 186 -89 255 -139 360 -24 52 -50 111 -57 130 -36 97 -235 475
-312 592 -24 37 -56 90 -71 118 -27 49 -50 83 -200 292 -99 138 -224 302 -234
306 -4 2 -41 45 -82 95 -126 157 -528 554 -691 682 -33 26 -76 62 -95 80 -19
17 -78 62 -130 100 -52 37 -100 73 -105 80 -6 7 -69 50 -140 96 -72 45 -134
88 -140 94 -5 7 -73 48 -150 91 -77 43 -142 81 -145 85 -14 18 -484 245 -610
294 -79 32 -154 63 -165 70 -23 15 -207 75 -395 130 -69 20 -138 42 -155 50
-103 45 -855 175 -1015 175 -21 0 -42 5 -45 10 -4 6 -180 10 -495 10 -315 0
-491 -4 -495 -10z m-49 -533 c4 -4 28 -6 53 -5 l46 1 -50 7 c-27 4 274 7 670
7 396 0 700 -3 675 -6 -37 -6 -40 -8 -20 -13 20 -4 17 -6 -15 -7 -32 -2 -36
-4 -20 -11 28 -12 95 -12 95 0 0 6 -6 10 -12 10 -7 1 1 6 17 13 29 12 171 14
183 3 3 -3 14 -6 25 -6 16 0 17 -3 7 -15 -10 -12 -10 -15 1 -15 8 0 34 -14 58
-30 42 -29 49 -30 150 -30 100 0 106 -1 126 -25 18 -22 30 -25 119 -31 64 -5
102 -12 110 -21 34 -41 38 -43 106 -43 67 0 92 -10 102 -41 2 -6 35 -13 73
-15 88 -6 93 -8 104 -38 9 -21 17 -24 73 -28 50 -3 71 -10 99 -31 20 -15 49
-27 65 -27 36 0 52 -10 68 -41 9 -20 21 -25 64 -29 44 -4 55 -9 65 -30 11 -21
20 -25 65 -28 45 -3 54 -7 62 -27 7 -18 19 -25 56 -31 40 -6 48 -11 60 -41 13
-30 19 -34 47 -33 57 3 65 0 76 -30 9 -28 14 -30 58 -30 40 -1 53 -6 77 -30
16 -17 35 -30 42 -30 7 0 14 -12 16 -27 3 -25 8 -29 52 -34 33 -3 53 -12 65
-27 9 -12 30 -26 48 -33 20 -7 33 -18 35 -32 2 -15 13 -23 38 -28 37 -8 120
-78 120 -102 0 -17 20 -37 38 -37 8 0 27 -11 44 -25 16 -14 40 -25 53 -25 24
0 53 -24 142 -114 12 -12 25 -34 28 -49 4 -15 11 -27 17 -27 21 0 354 -329
483 -477 73 -85 104 -111 153 -133 13 -5 30 -26 38 -45 8 -19 18 -35 23 -35 5
0 12 -15 15 -34 4 -19 21 -53 39 -76 42 -55 119 -130 133 -130 6 0 14 -22 18
-50 4 -27 11 -52 16 -55 6 -4 20 -25 31 -48 12 -23 29 -51 39 -62 9 -11 20
-30 23 -43 5 -19 2 -23 -16 -20 -12 2 -27 15 -34 29 -7 14 -29 43 -48 63 -20
21 -53 64 -75 95 -21 31 -60 79 -87 107 -26 28 -61 68 -78 88 -59 74 -108 126
-126 131 -10 3 -35 29 -55 58 -66 92 -328 333 -401 368 -24 11 -60 42 -80 68
-23 29 -64 62 -106 86 -38 22 -77 49 -86 61 -9 11 -28 27 -41 34 -14 7 -35 22
-48 33 -25 23 -97 67 -152 93 -19 9 -42 22 -51 30 -24 22 -126 82 -152 90 -12
4 -34 17 -49 30 -15 12 -42 26 -60 29 -18 4 -49 21 -68 36 -19 16 -44 29 -56
29 -11 0 -41 13 -65 30 -24 16 -53 30 -64 30 -12 0 -52 16 -89 35 -38 19 -76
35 -84 35 -9 0 -33 12 -53 26 -22 15 -59 28 -91 33 -32 4 -69 18 -93 34 -22
15 -53 27 -70 27 -16 1 -48 8 -70 16 -57 23 -133 45 -185 54 -25 5 -68 18 -96
29 -28 11 -79 23 -115 26 -35 4 -95 17 -134 30 -51 17 -111 26 -225 34 -85 6
-180 18 -210 26 -151 44 -810 41 -1030 -5 -52 -11 -121 -20 -153 -20 -77 0
-243 -28 -279 -46 -16 -8 -59 -17 -96 -20 -37 -3 -106 -19 -154 -35 -47 -16
-99 -29 -115 -29 -16 0 -51 -11 -77 -24 -27 -14 -70 -27 -98 -31 -27 -4 -70
-18 -96 -33 -26 -14 -69 -29 -97 -33 -27 -5 -62 -18 -77 -29 -15 -11 -49 -25
-75 -32 -26 -7 -60 -20 -75 -30 -15 -11 -49 -25 -76 -33 -27 -8 -55 -22 -62
-30 -7 -8 -28 -17 -47 -21 -19 -4 -46 -16 -61 -28 -15 -12 -48 -30 -73 -39
-26 -10 -54 -26 -64 -37 -9 -10 -31 -22 -49 -25 -17 -4 -42 -17 -56 -30 -14
-13 -41 -30 -60 -39 -48 -23 -121 -67 -155 -93 -15 -13 -34 -23 -41 -23 -7 0
-28 -13 -46 -29 -18 -15 -44 -34 -58 -41 -27 -14 -60 -38 -118 -85 -20 -17
-59 -46 -87 -65 -64 -43 -131 -99 -214 -175 -36 -34 -88 -79 -116 -100 -74
-59 -305 -294 -407 -415 -49 -58 -110 -130 -137 -160 -26 -30 -58 -71 -71 -90
-13 -19 -27 -37 -30 -40 -3 -3 -18 -23 -33 -45 -15 -22 -43 -60 -62 -85 -19
-25 -44 -63 -54 -86 -11 -24 -29 -45 -43 -49 -12 -5 -255 -12 -538 -16 -283
-4 -534 -10 -558 -14 l-42 -7 0 36 c0 29 5 38 29 50 17 9 36 33 50 63 28 62
39 80 78 126 18 20 33 43 33 51 0 16 67 118 85 128 6 4 33 44 60 90 27 46 69
103 94 129 56 55 100 111 126 160 19 36 91 122 162 195 18 18 33 38 33 43 0 5
9 13 20 16 11 4 27 20 35 36 9 16 22 29 30 29 8 0 21 14 30 30 9 17 22 30 30
30 8 0 21 14 30 30 9 17 22 30 30 30 7 0 22 14 32 30 9 17 23 30 31 30 7 0 21
13 30 30 9 16 22 30 28 30 6 0 25 15 42 33 17 17 46 44 64 59 18 15 49 41 69
57 20 17 41 31 46 31 5 0 20 12 34 26 13 14 38 32 55 40 17 8 37 26 44 39 7
14 17 25 21 25 5 0 23 13 41 28 18 16 46 32 61 36 16 4 33 17 39 32 6 13 22
27 35 30 13 4 32 19 44 35 11 16 29 29 39 29 11 0 35 14 53 30 19 17 41 30 49
30 8 0 25 12 39 26 13 14 39 32 57 40 19 7 47 25 64 39 16 14 34 25 40 25 5 0
23 11 39 25 16 13 45 29 64 34 20 5 49 21 66 35 17 14 41 26 55 26 13 0 38 13
56 30 19 18 42 30 58 30 15 0 44 13 65 30 22 17 50 30 66 30 17 0 42 12 61 29
23 20 52 33 92 40 35 6 69 20 88 36 18 15 42 25 61 25 19 0 50 13 76 30 34 24
55 30 94 30 41 0 56 5 78 26 22 21 42 28 97 34 49 5 81 15 104 31 25 18 52 25
115 30 69 6 87 11 113 33 29 24 39 26 121 26 67 0 102 5 141 21 29 12 68 27
87 34 31 11 32 13 15 23 -17 10 -17 11 8 12 15 0 29 3 31 8 6 9 134 9 143 -1z
m1661 7 c-3 -3 -12 -4 -19 -1 -8 3 -5 6 6 6 11 1 17 -2 13 -5z m156 -21 c-7
-2 -19 -2 -25 0 -7 3 -2 5 12 5 14 0 19 -2 13 -5z m579 -138 c67 -20 127 -40
132 -45 16 -16 -23 -12 -52 5 -15 8 -67 26 -116 40 -79 22 -113 35 -93 35 3 0
61 -16 129 -35z m331 -115 c139 -48 270 -99 277 -109 3 -4 37 -20 75 -36 103
-42 298 -134 305 -144 3 -4 68 -40 144 -80 77 -39 158 -85 180 -102 23 -16 93
-61 156 -100 63 -39 120 -76 125 -83 6 -7 52 -41 104 -76 52 -35 113 -80 135
-100 23 -20 67 -55 98 -78 32 -23 77 -60 100 -83 24 -22 72 -65 108 -95 134
-110 568 -567 620 -651 9 -15 37 -50 62 -78 25 -27 67 -81 93 -120 27 -38 66
-95 87 -125 36 -51 85 -124 202 -305 25 -38 75 -127 111 -197 l66 -128 -76 0
c-86 0 -86 0 -99 95 -9 59 -25 114 -42 135 -6 8 -26 45 -45 83 -18 37 -36 67
-41 67 -4 0 -8 4 -8 9 0 11 -97 157 -122 185 -10 11 -20 27 -23 37 -3 9 -12
20 -20 23 -8 3 -15 12 -15 20 0 8 -3 16 -7 18 -12 5 -94 106 -152 188 -53 73
-122 156 -195 233 -20 21 -36 42 -36 47 0 5 -9 14 -20 20 -11 6 -20 15 -20 20
0 13 -349 363 -459 461 -46 41 -102 91 -125 113 -44 41 -168 141 -206 166 -30
19 -160 120 -183 141 -10 9 -34 25 -55 35 -20 11 -44 26 -54 34 -9 8 -34 24
-55 35 -21 11 -47 28 -57 37 -11 10 -28 20 -38 24 -10 3 -18 10 -18 15 0 5 -5
9 -12 9 -6 0 -19 7 -28 15 -16 14 -44 30 -190 107 -41 21 -79 43 -84 49 -6 5
-17 9 -26 9 -9 0 -25 9 -35 20 -10 11 -24 20 -31 20 -7 0 -27 8 -46 17 -18 9
-41 20 -50 25 -10 4 -26 12 -35 18 -29 16 -185 86 -223 99 -19 8 -53 22 -75
32 -22 10 -68 28 -102 40 -35 12 -63 23 -63 25 0 6 4 5 123 -36z m-1081 -520
c193 -13 319 -28 383 -45 28 -8 97 -19 155 -25 58 -6 109 -15 115 -19 5 -4 48
-18 95 -30 47 -12 105 -29 130 -37 25 -9 59 -18 75 -21 17 -3 69 -20 117 -39
49 -19 106 -34 128 -34 26 0 47 -7 59 -19 28 -28 56 -41 86 -41 14 0 37 -11
50 -25 14 -13 42 -27 63 -31 20 -3 57 -19 81 -35 27 -18 58 -29 78 -29 25 0
42 -8 61 -29 19 -20 41 -31 73 -35 30 -4 53 -15 66 -30 11 -13 37 -26 56 -30
24 -4 43 -17 57 -36 12 -17 28 -30 35 -30 8 0 29 -13 47 -28 18 -15 46 -34 63
-41 16 -7 35 -21 42 -31 7 -10 26 -21 42 -25 16 -3 37 -15 47 -27 11 -11 35
-29 54 -39 19 -11 55 -35 80 -54 25 -19 56 -43 70 -52 32 -22 130 -104 233
-196 33 -29 66 -56 74 -60 39 -23 409 -413 432 -456 8 -13 28 -39 47 -57 51
-52 132 -151 138 -171 3 -10 19 -27 36 -38 33 -22 45 -44 32 -57 -5 -5 -242
-9 -541 -9 l-532 1 -72 76 c-164 172 -425 432 -462 460 -21 16 -60 48 -85 72
-25 24 -58 50 -75 59 -16 9 -40 25 -52 37 -11 12 -40 35 -63 51 -22 17 -55 41
-73 55 -18 15 -66 46 -107 70 -41 24 -90 57 -108 72 -18 15 -41 28 -52 28 -10
0 -31 11 -47 24 -15 13 -46 31 -68 40 -22 9 -49 25 -60 35 -11 11 -34 22 -52
26 -18 3 -49 20 -69 36 -20 16 -47 29 -60 29 -14 0 -43 14 -66 30 -23 17 -54
30 -70 30 -16 0 -45 11 -66 24 -20 14 -50 28 -67 32 -16 4 -55 19 -85 34 -30
15 -76 30 -103 33 -26 4 -60 16 -75 27 -30 22 -112 41 -143 33 -11 -3 -37 6
-61 22 -29 19 -62 30 -112 36 -95 12 -160 25 -226 44 -30 8 -152 22 -270 31
-118 8 -240 19 -270 24 -90 14 -346 11 -445 -5 -49 -8 -165 -20 -256 -25 -123
-8 -182 -16 -225 -31 -32 -11 -109 -27 -170 -34 -68 -8 -127 -21 -151 -33 -21
-11 -64 -25 -95 -31 -31 -5 -83 -21 -117 -35 -33 -15 -71 -26 -83 -26 -13 0
-50 -14 -83 -30 -33 -16 -71 -30 -85 -30 -14 0 -47 -14 -75 -30 -27 -16 -58
-30 -67 -30 -10 0 -32 -13 -50 -28 -18 -16 -50 -32 -72 -35 -21 -3 -48 -15
-60 -26 -12 -11 -42 -29 -67 -39 -26 -11 -50 -25 -54 -32 -4 -6 -30 -22 -58
-35 -29 -13 -74 -39 -102 -59 -27 -20 -68 -45 -91 -56 -42 -20 -104 -65 -139
-100 -12 -11 -25 -20 -31 -20 -5 0 -25 -13 -44 -28 -34 -28 -73 -52 -84 -52
-18 0 0 35 38 73 60 61 181 163 208 178 13 7 55 36 93 64 87 66 302 212 360
245 23 14 65 38 91 53 27 16 73 42 103 58 29 16 64 38 78 49 14 11 33 20 42
20 9 0 33 11 53 25 20 14 41 25 45 25 4 0 40 15 78 34 88 43 202 92 235 101
14 4 39 15 56 25 17 10 47 21 65 25 19 4 62 20 95 36 34 16 82 32 105 35 24 4
71 17 105 30 33 12 89 28 125 34 35 6 94 20 131 31 38 11 126 28 197 38 71 11
139 25 152 32 54 29 748 48 1041 29z m-5032 -994 c0 -2 -8 -10 -17 -17 -16
-13 -17 -12 -4 4 13 16 21 21 21 13z m-97 -111 c-3 -9 -8 -14 -10 -11 -3 3 -2
9 2 15 9 16 15 13 8 -4z m-59 -75 c-15 -22 -31 -40 -36 -40 -5 0 5 18 22 40
17 22 34 40 36 40 2 0 -8 -18 -22 -40z m-56 -74 c-19 -14 -105 -122 -111 -140
-2 -6 -7 -8 -10 -5 -4 3 23 42 59 88 36 46 69 80 72 76 4 -4 -1 -12 -10 -19z
m-168 -220 c0 -3 -6 -11 -12 -18 -7 -8 -17 -21 -23 -30 -43 -69 -127 -188
-136 -194 -14 -8 -11 -3 48 86 77 118 108 160 116 160 4 0 7 -2 7 -4z m-180
-266 c0 -5 -5 -10 -11 -10 -5 0 -7 5 -4 10 3 6 8 10 11 10 2 0 4 -4 4 -10z
m4935 -25 c83 -8 179 -17 215 -20 125 -11 349 -52 485 -90 128 -36 294 -89
333 -106 23 -10 49 -19 56 -19 8 0 27 -6 43 -14 27 -13 80 -37 153 -68 19 -9
69 -32 110 -51 l75 -36 -1769 -1 c-1558 0 -1768 2 -1750 15 10 8 25 15 32 15
8 0 26 8 40 18 15 10 68 35 117 56 50 21 99 42 110 47 29 12 99 37 190 65 44
14 102 34 129 45 27 10 56 19 64 19 8 0 38 7 66 15 351 101 912 148 1301 110z
m-4984 -44 c-12 -16 -21 -34 -21 -40 0 -6 -5 -11 -11 -11 -5 0 -7 6 -3 13 16
28 46 67 50 67 3 0 -4 -13 -15 -29z m-56 -90 c-8 -17 -19 -33 -25 -36 -5 -3
-1 10 11 29 25 43 36 48 14 7z m-85 -161 c-37 -70 -52 -167 -60 -385 -8 -246
-21 -313 -70 -374 -16 -22 -30 -42 -30 -45 0 -7 -26 -40 -56 -72 -12 -12 -24
-29 -27 -38 -4 -9 -11 -16 -17 -16 -5 0 -10 -4 -10 -9 0 -5 -9 -20 -20 -33
-11 -12 -48 -61 -82 -108 -35 -47 -66 -86 -70 -88 -5 -2 -8 -9 -8 -15 0 -7
-14 -25 -31 -42 l-31 -30 7 35 c12 57 95 332 110 365 8 17 41 102 74 190 32
88 71 186 85 218 14 31 25 60 25 63 0 4 4 10 9 13 5 3 24 40 42 81 45 104 131
272 147 288 7 7 13 18 13 24 0 6 3 9 6 6 3 -4 0 -16 -6 -28z m9904 -202 c23
-33 19 -63 -12 -95 -31 -31 -117 -142 -146 -188 -11 -16 -25 -33 -32 -38 -16
-9 -138 -166 -154 -199 -7 -12 -25 -36 -41 -53 -31 -33 -62 -71 -159 -200 -36
-47 -90 -117 -120 -155 -30 -38 -71 -90 -90 -115 -100 -132 -163 -205 -178
-206 -9 -1 -1314 -2 -2898 -3 -2810 -1 -2882 -1 -2903 -20 -11 -10 -23 -33
-25 -50 -3 -17 -7 -499 -11 -1071 -9 -1777 -17 -2373 -30 -2392 -12 -16 -67
-17 -682 -16 -369 0 -680 4 -692 8 -11 3 -24 17 -27 30 -17 68 -26 3329 -10
3420 6 33 4 45 -12 65 l-20 25 -754 2 c-414 0 -904 -2 -1088 -6 -213 -5 -340
-4 -347 2 -21 16 -15 47 16 75 16 15 36 41 45 57 25 46 64 97 84 110 9 7 33
37 53 66 20 30 44 67 55 83 10 15 28 42 39 60 11 17 42 54 68 81 47 48 117
147 117 164 0 10 89 101 99 101 6 0 42 52 103 150 9 14 41 51 72 83 30 32 81
91 112 132 31 41 61 75 67 75 132 -1 1446 11 1952 19 851 12 4454 13 4750 0
414 -17 1700 -22 2100 -8 204 7 427 13 497 14 69 0 130 3 134 8 15 15 53 6 68
-15z m-9794 -1563 c217 -2 398 -4 402 -4 4 -1 12 -11 19 -22 8 -17 8 -30 -4
-58 -9 -20 -21 -92 -27 -161 -6 -69 -20 -195 -31 -280 -26 -214 -26 -562 1
-790 11 -91 25 -214 31 -274 6 -60 19 -130 29 -156 10 -26 23 -82 29 -124 6
-43 20 -98 30 -124 11 -26 24 -76 31 -112 6 -36 20 -79 30 -96 10 -17 23 -55
29 -83 6 -28 22 -74 36 -101 14 -27 25 -57 25 -67 0 -10 16 -49 35 -87 19 -39
35 -76 35 -83 0 -29 228 -462 266 -503 12 -14 30 -43 39 -65 9 -22 24 -49 35
-60 27 -29 66 -84 90 -127 11 -21 40 -61 64 -91 24 -29 49 -63 55 -74 6 -12
23 -34 38 -50 16 -16 53 -58 83 -93 97 -112 181 -203 276 -297 114 -112 251
-233 264 -233 5 0 25 -15 44 -32 19 -18 53 -46 76 -63 24 -16 57 -45 75 -62
17 -18 41 -33 53 -33 11 0 27 -8 34 -19 7 -10 32 -28 54 -39 23 -12 44 -28 47
-36 3 -8 21 -18 40 -21 18 -4 46 -20 61 -36 15 -16 36 -29 46 -29 11 0 29 -11
42 -23 13 -13 39 -30 58 -37 19 -7 44 -21 55 -30 11 -10 43 -25 72 -34 28 -9
54 -23 57 -31 3 -8 30 -21 60 -30 31 -9 60 -24 65 -33 8 -13 25 -17 83 -18 71
-1 73 -2 76 -27 3 -22 11 -29 45 -37 74 -20 82 -22 97 -35 37 -30 120 -39 136
-14 3 5 21 9 40 9 31 0 34 -3 34 -30 0 -21 8 -35 25 -46 24 -15 28 -15 70 0
24 10 59 16 77 14 27 -2 35 -8 42 -35 9 -29 16 -34 62 -44 28 -6 69 -8 90 -5
21 4 59 8 84 9 38 2 47 -2 55 -20 12 -29 19 -31 131 -45 75 -10 101 -9 130 1
42 15 270 16 310 1 14 -6 51 -10 82 -10 31 0 76 -5 99 -10 27 -6 51 -6 68 0
76 29 290 47 358 30 65 -16 145 -5 237 33 66 27 87 31 176 32 95 1 103 2 133
28 29 24 38 26 85 21 58 -7 99 8 148 54 25 22 32 24 83 18 54 -6 57 -5 91 29
32 32 40 35 93 35 52 0 61 3 75 25 13 20 25 25 58 25 28 0 51 8 72 24 17 13
46 27 64 31 18 4 53 24 78 46 31 27 55 39 75 39 19 0 40 10 56 26 15 15 45 35
69 45 23 10 47 26 54 34 7 8 18 15 24 15 7 0 23 11 36 25 16 17 34 25 58 25
24 0 42 9 65 32 37 37 115 88 134 88 7 0 13 -6 13 -13 0 -14 -79 -93 -120
-120 -14 -9 -43 -30 -65 -46 -22 -17 -62 -46 -90 -65 -176 -123 -211 -146
-219 -146 -5 0 -23 -11 -40 -24 -17 -13 -53 -35 -81 -50 -27 -15 -79 -44 -115
-65 -36 -22 -108 -60 -160 -87 -52 -26 -115 -61 -139 -76 -25 -15 -54 -28 -65
-28 -12 0 -48 -14 -81 -30 -33 -16 -66 -30 -73 -30 -7 0 -38 -13 -69 -30 -31
-16 -65 -30 -75 -30 -11 0 -50 -13 -87 -30 -37 -16 -87 -34 -112 -39 -24 -6
-58 -17 -76 -26 -17 -9 -65 -22 -105 -31 -40 -8 -84 -19 -98 -25 -22 -10 -146
-35 -370 -74 -41 -7 -129 -18 -195 -25 -66 -6 -158 -18 -204 -27 -103 -18
-704 -20 -791 -3 -30 6 -136 20 -235 30 -99 11 -211 28 -250 39 -38 11 -97 22
-130 26 -33 4 -88 18 -123 32 -34 13 -92 29 -128 34 -36 5 -83 18 -104 29 -22
11 -66 26 -98 34 -83 19 -255 87 -397 157 -33 16 -64 29 -69 29 -11 0 -205 98
-311 158 -44 25 -111 62 -149 84 -39 21 -86 51 -105 66 -19 15 -53 38 -76 52
-54 32 -170 117 -293 215 -24 19 -47 35 -51 35 -5 0 -36 27 -69 60 -34 33 -65
60 -69 60 -5 1 -65 56 -134 123 -140 135 -368 388 -457 506 -31 42 -63 83 -70
91 -38 45 -70 88 -92 125 -54 90 -66 109 -97 147 -18 22 -33 46 -33 53 0 7 -6
18 -14 24 -8 7 -27 37 -43 67 -47 93 -67 129 -89 160 -12 16 -24 43 -28 59 -4
17 -18 44 -30 60 -13 17 -26 41 -30 55 -4 14 -20 52 -36 85 -83 176 -145 329
-160 398 -6 27 -17 58 -25 70 -7 12 -23 57 -35 100 -12 43 -28 93 -36 112 -7
18 -19 66 -25 107 -6 40 -18 87 -26 103 -9 17 -24 84 -34 149 -11 66 -28 149
-38 185 -19 62 -30 190 -48 549 -3 56 -8 100 -12 97 -3 -4 -9 -46 -12 -93 -3
-48 -5 41 -5 198 0 157 2 249 3 205 2 -44 8 -84 12 -88 11 -11 25 325 23 517
-2 130 0 151 15 169 33 36 73 47 153 42 41 -3 253 -7 470 -10z m8610 -405 c36
-10 105 -24 153 -30 48 -6 99 -15 113 -20 14 -6 37 -10 52 -10 15 0 39 -6 54
-14 14 -8 49 -17 76 -21 28 -4 65 -17 83 -31 27 -19 45 -24 96 -24 60 0 63 -1
63 -24 0 -26 8 -30 71 -41 27 -5 38 -13 46 -35 7 -19 21 -31 39 -36 18 -4 64
-43 119 -99 124 -127 134 -140 184 -225 25 -41 52 -84 62 -95 9 -11 22 -47 27
-80 6 -33 20 -86 31 -117 31 -85 47 -373 31 -540 -7 -67 -15 -161 -19 -208 -4
-49 -14 -96 -23 -110 -9 -14 -19 -43 -23 -65 -4 -22 -15 -53 -25 -70 -10 -16
-25 -55 -34 -86 -10 -32 -27 -65 -41 -77 -18 -15 -25 -32 -25 -56 0 -30 -12
-46 -81 -118 -45 -46 -104 -109 -132 -140 -52 -61 -91 -77 -85 -36 2 16 12 24
37 29 39 8 51 23 51 63 0 19 10 41 27 58 19 20 26 38 27 70 1 41 0 43 -29 43
-30 0 -30 -1 -30 -53 0 -51 -1 -52 -35 -63 -50 -16 -60 -27 -60 -65 0 -23 -6
-37 -20 -44 -21 -11 -107 -16 -117 -7 -13 14 10 60 38 75 55 30 59 36 52 61
-6 23 -7 23 -14 5 -6 -15 -8 -16 -8 -3 -1 19 -27 33 -36 19 -3 -6 -16 -5 -31
0 -14 6 -38 10 -54 10 -31 0 -48 -15 -27 -23 7 -3 14 -21 15 -41 2 -31 -1 -38
-25 -47 -15 -5 -42 -8 -60 -6 -26 4 -33 1 -33 -12 0 -38 -64 -59 -77 -25 -8
21 8 34 43 37 21 2 29 8 29 22 0 15 -12 24 -50 37 -46 15 -224 16 -2260 17
-2200 1 -2210 1 -2223 -19 -7 -11 -21 -20 -32 -20 -11 0 -28 9 -37 20 -16 18
-30 20 -135 20 -65 0 -118 -4 -118 -9 0 -5 -11 -8 -25 -8 -18 0 -27 6 -31 23
-9 37 -59 33 -79 -6 -11 -21 -23 -30 -40 -30 -27 0 -36 -10 -39 -45 -4 -31
-94 -144 -121 -151 -13 -3 -28 -16 -35 -29 -7 -13 -30 -38 -51 -54 -21 -17
-48 -49 -60 -71 -12 -22 -31 -42 -40 -45 -11 -4 -21 -20 -25 -43 -9 -48 -17
-57 -76 -87 -57 -29 -98 -33 -98 -9 0 26 16 48 63 83 25 18 53 50 64 70 10 20
28 50 41 67 12 17 22 38 22 46 0 15 78 98 91 98 3 0 26 30 49 68 24 37 58 83
75 102 18 19 54 67 79 107 25 39 60 81 76 93 17 12 39 38 50 59 10 21 35 57
56 82 20 24 47 61 60 81 13 20 44 58 69 84 25 26 53 60 61 75 8 16 23 33 34
39 13 7 592 10 1857 10 1024 0 1876 4 1923 9 116 13 208 51 281 119 35 32 63
68 70 90 17 49 16 300 0 340 -10 25 -61 74 -132 130 -9 6 -36 16 -60 21 -24 5
-75 17 -114 27 -65 17 -178 18 -1630 24 -1619 7 -1647 8 -1780 50 -33 10 -86
21 -119 25 -32 4 -79 18 -104 31 -25 13 -55 24 -67 24 -12 0 -49 13 -81 30
-32 16 -72 32 -87 36 -16 3 -58 26 -94 51 -36 24 -88 55 -116 69 -33 15 -84
56 -137 109 -46 47 -88 85 -93 85 -4 0 -16 17 -25 38 -17 37 -32 60 -85 129
-15 20 -34 60 -42 88 -9 29 -27 62 -40 75 -28 26 -32 55 -11 67 8 4 1098 7
2423 5 2328 -3 2410 -4 2473 -22z m-7380 -647 c19 -11 30 -27 34 -52 8 -48 8
-2080 0 -2120 -13 -62 -44 -37 -121 94 -16 27 -131 262 -150 305 -8 19 -23 53
-33 75 -20 43 -37 89 -68 175 -10 30 -25 71 -31 90 -111 312 -162 661 -147
1009 15 360 16 378 43 403 22 21 37 24 146 29 249 11 297 10 327 -8z m2218
-58 c8 -16 12 -84 12 -178 0 -155 18 -304 44 -367 8 -19 24 -60 36 -90 13 -30
26 -57 30 -60 4 -3 18 -25 31 -50 21 -39 73 -115 89 -130 3 -3 16 -18 29 -35
35 -46 156 -170 208 -212 75 -61 94 -84 100 -117 4 -27 -1 -38 -29 -67 -36
-37 -88 -104 -88 -114 0 -3 -9 -15 -20 -27 -10 -12 -17 -24 -15 -28 2 -3 -5
-13 -16 -20 -10 -8 -19 -18 -19 -23 0 -4 -17 -29 -37 -56 -21 -26 -45 -58 -53
-71 -30 -45 -55 -75 -71 -88 -10 -6 -39 -45 -65 -85 -27 -39 -52 -73 -56 -75
-4 -2 -8 -9 -8 -15 0 -12 -43 -57 -53 -57 -8 0 -48 -40 -75 -75 l-22 -27 -10
27 c-6 17 -10 371 -10 1023 0 887 2 1000 16 1020 20 29 38 28 52 -3z m716
-1590 c8 -23 -14 -74 -36 -81 -26 -8 -38 10 -38 59 0 35 1 37 34 37 21 0 36
-6 40 -15z m5171 -185 c10 -16 -15 -40 -41 -40 -30 0 -31 14 -2 34 26 19 35
20 43 6z m-10 -487 c-21 -32 -52 -70 -67 -85 -19 -18 -28 -37 -28 -57 0 -22
-7 -35 -26 -48 -15 -9 -33 -31 -41 -48 -29 -64 -69 -129 -82 -133 -11 -4 -13
4 -7 38 4 23 13 51 20 62 8 11 12 27 9 36 -2 10 11 32 36 56 46 45 46 70 0 54
-20 -7 -29 -17 -29 -31 0 -16 -3 -18 -9 -8 -5 8 -11 9 -15 3 -3 -5 -32 -13
-63 -16 -69 -8 -113 -24 -113 -40 0 -12 -56 -31 -135 -46 -27 -6 -50 -4 -72 5
-68 29 -113 23 -156 -21 -44 -46 -69 -41 -64 11 4 36 4 36 -26 29 -42 -9 -66
-25 -60 -40 8 -21 -55 -47 -99 -41 -45 6 -81 -9 -94 -38 -5 -11 -24 -24 -41
-30 -22 -6 -33 -15 -33 -27 0 -10 -11 -23 -24 -27 -13 -5 -36 -30 -52 -55 -16
-25 -34 -46 -40 -46 -7 0 -14 -7 -18 -15 -3 -8 -11 -15 -18 -15 -7 0 -22 -19
-32 -41 -11 -22 -31 -50 -45 -62 -15 -12 -36 -35 -49 -51 -12 -16 -33 -34 -45
-40 -15 -8 -23 -22 -25 -46 -4 -40 -27 -70 -52 -70 -18 0 -79 -61 -100 -99 -6
-12 -17 -21 -24 -21 -7 0 -19 -12 -26 -26 -8 -14 -26 -32 -40 -39 -14 -7 -63
-52 -109 -99 -45 -47 -88 -86 -94 -86 -9 0 -100 -78 -173 -150 -16 -16 -35
-30 -41 -30 -6 0 -20 -16 -32 -35 -11 -19 -27 -35 -34 -35 -8 0 -28 -13 -45
-30 -18 -17 -43 -30 -56 -30 -16 0 -32 -11 -46 -30 -12 -16 -27 -30 -34 -30
-7 0 -25 -13 -41 -30 -16 -16 -38 -30 -50 -30 -12 0 -34 -13 -50 -30 -20 -21
-38 -30 -61 -30 -26 0 -42 -10 -85 -55 -28 -30 -61 -58 -73 -61 -12 -4 -37
-19 -56 -34 -19 -15 -46 -31 -60 -35 -14 -4 -40 -21 -58 -36 -22 -20 -44 -29
-66 -29 -22 0 -46 -10 -71 -30 -21 -16 -45 -30 -53 -30 -8 0 -31 -12 -50 -26
-19 -15 -53 -31 -76 -36 -22 -5 -53 -20 -67 -34 -20 -19 -41 -27 -85 -31 -43
-4 -66 -12 -84 -29 -18 -17 -43 -25 -85 -30 -48 -5 -65 -12 -87 -35 -23 -24
-35 -29 -77 -29 -39 0 -56 -6 -82 -27 -27 -23 -46 -29 -104 -34 -54 -4 -81
-12 -106 -30 -29 -20 -49 -25 -144 -29 -90 -5 -118 -10 -155 -30 -38 -20 -64
-25 -170 -30 -79 -3 -134 -10 -150 -19 -13 -8 -43 -13 -66 -12 -23 0 -73 -6
-111 -16 -57 -14 -130 -16 -468 -17 -220 -1 -418 3 -439 7 -89 19 2 27 319 27
326 0 519 10 572 31 46 17 151 30 268 34 114 3 159 12 204 42 19 13 44 17 91
16 76 -2 173 20 212 48 19 13 44 19 80 19 39 0 69 8 113 30 33 16 74 30 92 30
42 0 79 18 98 47 13 19 24 23 69 23 43 0 61 5 84 25 18 15 42 25 60 25 43 0
79 15 106 45 15 16 41 28 70 34 26 5 57 18 69 29 12 11 36 24 52 28 17 4 45
20 63 36 18 15 43 28 56 28 13 0 40 11 60 25 21 14 53 32 71 39 62 26 222 137
233 162 9 18 19 24 45 24 34 0 66 19 145 86 36 30 152 110 216 149 18 11 61
49 97 85 35 36 96 92 134 124 151 125 338 304 453 432 34 38 74 83 89 99 44
48 271 332 282 353 6 11 25 37 43 59 18 22 38 48 43 58 12 20 153 47 370 70
193 21 210 23 298 51 43 13 95 24 115 24 20 0 57 10 82 21 25 12 76 32 114 45
38 13 74 27 80 32 6 5 27 15 46 22 19 8 51 24 70 37 54 36 60 13 15 -54z
m-346 -300 c-1 -17 -3 -21 -6 -10 -2 9 -10 17 -16 17 -7 0 -6 4 3 10 20 13 20
13 19 -17z m52 -166 c-8 -8 -11 -5 -11 9 0 27 14 41 18 19 2 -9 -1 -22 -7 -28z
m-188 17 c9 -10 -4 -34 -19 -34 -8 0 -14 9 -14 20 0 19 19 27 33 14z m147 -71
c-1 -18 -29 -43 -49 -43 -25 0 -27 13 -5 34 16 16 54 22 54 9z m-190 -277 c0
-19 -49 -76 -50 -58 0 19 29 72 40 72 6 0 10 -6 10 -14z m-60 -84 c0 -4 -18
-26 -40 -47 -45 -44 -54 -30 -14 22 23 30 54 45 54 25z m-1026 -37 c-4 -8 -11
-15 -16 -15 -6 0 -5 6 2 15 7 8 14 15 16 15 2 0 1 -7 -2 -15z m-4360 -189 c29
-30 77 -66 107 -82 108 -54 88 -54 1594 -54 l1389 0 -49 -24 c-126 -61 -203
-96 -215 -96 -7 0 -27 -8 -44 -18 -17 -10 -58 -27 -91 -37 -33 -9 -80 -26
-105 -35 -25 -10 -74 -26 -110 -35 -36 -9 -84 -25 -108 -36 -23 -10 -55 -19
-70 -19 -16 0 -48 -6 -73 -14 -111 -35 -160 -46 -239 -52 -47 -4 -105 -13
-130 -21 -25 -7 -159 -21 -300 -30 -213 -13 -302 -14 -540 -5 -193 7 -308 16
-355 27 -38 9 -120 22 -181 30 -61 7 -120 18 -130 23 -32 16 -129 42 -160 42
-16 0 -45 8 -64 19 -19 10 -72 28 -117 39 -45 11 -90 25 -100 31 -10 5 -48 19
-83 30 -36 12 -81 30 -101 41 -20 11 -44 20 -52 20 -14 0 -147 57 -192 82 -11
6 -30 17 -42 23 -20 10 -5 14 100 25 78 8 135 19 159 31 21 11 42 19 48 19 12
0 12 0 100 74 36 30 73 55 84 55 10 1 42 -23 70 -53z m-2674 -136 c0 -5 -4
-10 -10 -10 -5 0 -10 5 -10 10 0 6 5 10 10 10 6 0 10 -4 10 -10z m68 -62 c-6
-18 -28 -21 -28 -4 0 9 7 16 16 16 9 0 14 -5 12 -12z m7572 -32 c0 -2 -8 -10
-17 -17 -16 -13 -17 -12 -4 4 13 16 21 21 21 13z m-7505 -26 c3 -5 -1 -10 -10
-10 -9 0 -13 5 -10 10 3 6 8 10 10 10 2 0 7 -4 10 -10z m165 -125 c0 -8 -5
-15 -11 -15 -8 0 -7 -6 2 -17 13 -17 13 -17 -11 -2 -35 23 -38 49 -6 49 16 0
26 -6 26 -15z m70 -65 c0 -5 -4 -10 -9 -10 -6 0 -13 5 -16 10 -3 6 1 10 9 10
9 0 16 -4 16 -10z m264 -166 c28 -11 17 -24 -18 -24 -34 0 -52 11 -39 24 8 8
37 8 57 0z m206 -140 c0 -11 -5 -14 -16 -10 -9 3 -22 6 -30 6 -9 0 -12 5 -9
10 10 17 55 12 55 -6z m118 -61 c2 -8 -5 -13 -17 -13 -21 0 -35 13 -24 24 10
10 36 3 41 -11z m102 -63 c0 -5 -9 -10 -20 -10 -11 0 -20 5 -20 10 0 6 9 10
20 10 11 0 20 -4 20 -10z m140 -55 c11 -13 7 -15 -23 -15 -39 0 -58 16 -30 23
32 8 40 7 53 -8z m124 -51 c29 -11 17 -24 -21 -24 -36 1 -37 2 -19 15 23 17
20 17 40 9z m144 -75 c-2 -6 -7 -10 -11 -10 -4 1 -16 1 -27 1 -11 0 -20 5 -20
10 0 6 14 10 31 10 17 0 29 -5 27 -11z m181 -54 c21 -22 -78 -35 -109 -15 -13
9 -13 11 0 20 13 9 98 5 109 -5z m199 -72 c2 -9 -10 -13 -41 -13 -57 0 -84 9
-65 21 19 13 101 6 106 -8z m206 -49 c35 -13 13 -24 -48 -24 -60 0 -84 8 -69
24 8 8 96 8 117 0z m234 -60 c45 -13 20 -24 -53 -24 -69 0 -86 6 -68 23 8 9
90 9 121 1z m357 -70 c28 -3 57 -7 65 -10 33 -11 -15 -22 -60 -14 -25 5 -91 9
-147 10 -93 0 -133 10 -101 24 13 6 155 0 243 -10z"/>
<path d="M5418 21208 c8 -8 20 -8 44 -1 l33 11 -44 1 c-34 1 -42 -2 -33 -11z"/>
<path d="M5604 14156 c-3 -8 -4 -27 -2 -43 2 -22 9 -29 30 -31 22 -3 29 2 34
23 10 42 -47 90 -62 51z"/>
<path d="M5775 14120 c-3 -5 -4 -14 0 -20 8 -13 35 -1 35 16 0 16 -26 19 -35
4z"/>
<path d="M5874 14070 c-31 -12 -38 -69 -11 -79 11 -4 31 -6 44 -3 21 4 24 9
21 46 -3 44 -16 52 -54 36z"/>
<path d="M10518 13153 c7 -3 16 -2 19 1 4 3 -2 6 -13 5 -11 0 -14 -3 -6 -6z"/>
<path d="M9988 13033 c7 -3 16 -2 19 1 4 3 -2 6 -13 5 -11 0 -14 -3 -6 -6z"/>
<path d="M13861 20285 l-263 -41 -140 -199 c-338 -486 -767 -1138 -1018 -1550
-441 -722 -785 -1444 -1000 -2095 -72 -216 -137 -456 -127 -466 9 -10 760 251
768 267 3 8 30 85 58 172 46 142 194 504 255 625 l24 47 433 151 c302 105 435
146 437 137 3 -11 -109 -580 -143 -728 -8 -32 -13 -61 -11 -62 2 -2 158 50
347 115 l344 118 30 113 30 113 324 97 324 96 92 270 c79 234 199 563 208 572
2 1 66 14 143 28 76 14 167 32 202 40 35 8 65 15 67 15 9 0 53 -97 69 -149 29
-99 39 -258 26 -433 -6 -88 -10 -162 -7 -164 2 -2 127 54 278 125 l274 129 3
163 c3 220 -6 278 -63 395 -25 53 -45 97 -43 99 2 2 39 27 83 56 248 161 436
461 516 821 30 134 37 355 14 447 -48 196 -232 361 -470 420 -241 59 -548 63
-865 10 -124 -21 -341 -72 -364 -87 -9 -5 1 -66 41 -242 30 -129 56 -236 58
-239 3 -2 28 1 57 7 29 5 54 9 56 8 1 -2 -46 -101 -104 -222 -345 -712 -688
-1544 -870 -2106 -15 -48 -29 -86 -31 -84 -2 1 12 74 31 162 161 753 226 1366
226 2144 0 275 -17 807 -28 896 l-7 50 -264 -41z m1787 -756 c181 -42 234
-102 218 -251 -20 -191 -110 -385 -214 -461 -66 -48 -173 -100 -268 -130 -99
-31 -292 -73 -300 -64 -3 3 15 52 41 109 56 122 277 562 333 664 l40 71 -89
39 -88 39 37 6 c57 10 198 0 290 -22z m-2178 -746 c0 -179 -31 -668 -43 -680
-7 -6 -550 -143 -554 -139 -6 5 88 176 200 366 138 234 361 550 387 550 6 0
10 -42 10 -97z"/>
<path d="M20040 20294 c-185 -18 -308 -39 -485 -84 -233 -59 -265 -69 -265
-88 0 -24 92 -666 96 -671 2 -2 33 5 69 14 36 10 67 16 69 14 2 -2 -41 -101
-96 -219 -480 -1033 -870 -2007 -1223 -3050 -47 -139 -83 -255 -80 -258 7 -8
238 27 422 64 478 95 845 246 1228 505 239 162 515 416 688 633 443 557 808
1332 918 1951 30 172 24 399 -15 530 -32 105 -97 232 -160 313 -138 175 -387
289 -748 342 -151 23 -226 23 -418 4z m228 -734 c198 -22 325 -72 374 -150 44
-68 59 -136 59 -254 0 -117 -11 -189 -48 -321 -78 -277 -325 -794 -518 -1085
-231 -348 -542 -629 -947 -854 -38 -21 -68 -35 -68 -32 0 3 36 108 81 233 254
715 566 1427 933 2130 77 147 102 204 93 210 -6 4 -61 36 -122 70 l-110 63 88
0 c48 0 131 -5 185 -10z"/>
<path d="M24430 20196 c-470 -108 -791 -240 -989 -407 -41 -34 -72 -56 -69
-48 3 8 43 103 88 212 45 109 80 201 76 204 -7 7 -1111 -71 -1306 -93 -213
-23 -605 -96 -625 -116 -3 -2 14 -105 38 -229 37 -193 45 -224 60 -221 9 2 17
-1 17 -6 0 -4 -25 -69 -56 -143 -146 -351 -378 -952 -541 -1404 -105 -290
-325 -937 -321 -940 5 -3 1879 562 1885 569 13 13 179 511 171 514 -4 2 -278
-74 -609 -168 -330 -95 -603 -169 -606 -166 -7 7 194 589 211 610 7 9 146 40
389 87 208 40 381 76 386 79 9 6 172 503 166 508 -3 3 -633 -98 -707 -114 -18
-3 -28 -1 -28 6 0 14 230 613 239 621 5 6 947 99 994 99 17 0 17 -2 -2 -29
-42 -58 -102 -198 -127 -296 -31 -121 -44 -336 -25 -428 32 -149 136 -278 278
-343 254 -116 330 -170 379 -270 23 -47 26 -63 21 -115 -12 -139 -113 -261
-299 -363 -119 -66 -518 -206 -769 -270 -71 -18 -132 -36 -134 -38 -5 -4 209
-456 221 -467 7 -7 158 27 306 69 245 70 577 215 752 328 104 67 280 249 340
350 102 175 156 350 156 506 -1 262 -99 421 -350 568 -64 37 -131 79 -150 93
-61 44 -141 129 -162 169 -43 83 -3 220 93 321 76 81 187 133 378 179 174 42
461 93 573 102 43 4 78 8 78 10 0 1 -54 114 -119 251 -87 181 -124 249 -138
250 -10 1 -83 -13 -163 -31z"/>
<path d="M17970 20119 c-943 -58 -1112 -77 -1482 -165 -84 -20 -108 -30 -108
-42 0 -29 93 -477 101 -486 4 -5 79 5 171 23 177 33 360 62 365 57 2 -2 -37
-113 -88 -247 -264 -705 -749 -2089 -733 -2089 21 0 631 185 640 194 7 6 38
90 69 186 153 464 423 1219 627 1748 39 101 66 187 62 191 -5 4 -35 18 -67 31
-32 12 -56 24 -54 26 1 2 155 14 341 28 186 14 340 27 342 29 4 4 164 525 164
533 0 5 9 5 -350 -17z"/>
<path d="M26856 20129 c-153 -21 -322 -77 -491 -162 -384 -192 -662 -524 -854
-1017 -177 -454 -195 -830 -54 -1169 134 -325 380 -491 727 -491 202 0 342 46
592 195 l32 19 161 -69 c89 -37 163 -66 165 -64 2 2 22 74 45 159 35 129 234
738 313 957 12 34 20 64 18 66 -15 12 -503 287 -506 284 -9 -8 -134 -369 -189
-546 -35 -112 -72 -213 -82 -223 -34 -38 -178 -149 -243 -188 -264 -158 -461
-75 -542 228 -29 111 -36 327 -14 452 73 415 378 851 714 1018 83 41 101 46
176 50 111 6 170 -14 235 -77 79 -77 150 -250 184 -448 l12 -73 290 236 c160
130 296 242 304 249 12 12 9 22 -24 72 -103 156 -258 326 -367 401 -75 52
-183 102 -265 122 -92 24 -242 32 -337 19z"/>
<path d="M29591 20084 c-144 -18 -264 -34 -266 -36 -12 -12 -301 -799 -451
-1228 -56 -162 -105 -288 -108 -280 -3 8 -71 350 -152 760 -81 410 -148 747
-150 749 -4 4 -506 -208 -518 -219 -5 -5 7 -91 28 -203 20 -107 36 -203 36
-213 0 -11 -48 -139 -106 -284 -160 -399 -279 -710 -412 -1075 -140 -385 -364
-1035 -360 -1045 2 -3 147 36 324 89 l321 95 78 235 c42 130 127 376 187 546
60 171 119 336 130 368 11 32 24 55 28 50 4 -4 49 -235 100 -513 51 -278 94
-506 95 -508 2 -2 149 40 328 94 l324 96 42 137 c201 650 538 1641 779 2289
l50 132 -32 -1 c-17 -1 -150 -16 -295 -35z"/>
<path d="M25465 20023 c-143 -13 -265 -25 -271 -27 -6 -2 -28 -48 -49 -103
-190 -492 -348 -919 -488 -1318 -197 -562 -471 -1398 -459 -1402 4 -2 149 39
322 91 l315 93 33 99 c18 54 100 302 181 549 201 609 499 1438 694 1933 l45
112 -32 -1 c-17 -1 -148 -12 -291 -26z"/>
<path d="M22409 16354 c-63 -68 -201 -281 -325 -501 l-30 -53 -52 70 c-88 118
-207 195 -337 219 -85 16 -254 14 -341 -5 -308 -63 -645 -271 -949 -585 -214
-222 -370 -462 -450 -694 -33 -97 -45 -264 -25 -354 48 -214 237 -354 725
-536 341 -127 490 -205 609 -316 34 -32 75 -82 92 -111 27 -49 29 -61 29 -153
0 -88 -3 -107 -28 -159 -139 -297 -617 -659 -1062 -805 -248 -81 -403 -77
-503 14 -77 69 -103 177 -78 322 40 230 159 463 328 638 75 79 81 88 72 113
-12 36 -68 65 -113 58 -92 -14 -375 -385 -526 -689 -143 -289 -193 -523 -150
-705 20 -85 48 -136 105 -193 56 -56 120 -90 227 -121 70 -21 99 -23 278 -22
213 0 288 11 490 69 328 95 743 312 1012 529 238 193 414 400 487 574 54 129
57 313 7 473 -43 138 -194 321 -352 427 -118 79 -244 142 -481 241 -276 115
-384 167 -478 229 -118 78 -160 135 -160 220 0 253 461 803 935 1115 148 97
301 167 366 167 91 0 124 -161 78 -378 -27 -128 -46 -194 -134 -462 -98 -297
-118 -382 -119 -500 -1 -85 2 -101 27 -153 86 -173 287 -285 404 -224 l32 17
-18 33 c-29 49 -33 103 -16 202 72 413 518 1235 867 1600 76 80 88 97 88 127
0 78 -108 186 -259 260 -68 33 -98 42 -155 46 l-71 4 -46 -48z"/>
<path d="M11813 16083 c-13 -5 -18 -60 -7 -87 3 -8 12 -12 20 -9 9 3 14 21 14
54 0 48 -3 52 -27 42z"/>
<path d="M14459 15860 c-369 -28 -1220 -223 -1944 -445 -132 -41 -262 -80
-288 -87 -63 -16 -114 -59 -128 -107 -17 -57 11 -172 60 -248 69 -107 125
-137 236 -126 84 8 187 -11 263 -48 128 -62 251 -217 298 -374 28 -91 25 -357
-4 -530 -68 -392 -170 -715 -428 -1352 -100 -247 -108 -285 -78 -349 48 -101
255 -207 371 -189 82 12 98 37 187 300 246 726 576 1519 1001 2408 137 287
138 289 126 328 -10 32 -26 50 -79 90 -60 44 -133 85 -187 104 -20 7 -20 7 1
15 81 32 584 90 773 90 216 0 351 -35 455 -119 42 -34 49 -36 76 -21 26 14 40
63 47 166 5 76 2 103 -15 160 -23 76 -80 171 -133 221 -97 91 -328 134 -610
113z m-843 -688 c-3 -5 -73 -186 -156 -403 -82 -217 -153 -401 -156 -409 -4
-9 -12 8 -20 40 -28 109 -91 219 -173 301 -42 41 -97 90 -123 107 -56 38 -194
108 -232 118 -15 3 -24 10 -19 14 10 9 187 59 553 158 294 80 336 89 326 74z"/>
<path d="M28313 15680 c-129 -58 -382 -401 -632 -857 -146 -267 -437 -870
-555 -1153 -49 -118 -302 -446 -461 -599 -105 -101 -188 -155 -279 -183 -63
-19 -73 -20 -110 -7 -29 10 -45 24 -60 54 -18 35 -21 57 -20 170 0 106 5 150
27 240 88 357 265 732 417 880 l51 50 -35 -76 c-88 -190 -118 -358 -82 -452
41 -107 214 -208 303 -177 30 11 31 13 31 73 2 158 139 417 342 645 87 97 92
105 86 137 -14 72 -138 199 -241 246 -22 10 -63 19 -91 19 -63 0 -87 -17 -151
-108 -26 -37 -48 -69 -50 -71 -2 -2 -42 14 -91 37 -100 48 -152 53 -232 23
-141 -54 -336 -252 -484 -491 -94 -151 -221 -422 -266 -565 -23 -74 -208 -323
-322 -431 -98 -95 -161 -119 -174 -68 -35 140 118 554 381 1029 55 99 95 183
95 199 0 88 -151 213 -281 231 -76 11 -105 -8 -219 -147 -56 -67 -107 -127
-115 -132 -9 -7 -45 12 -123 62 -148 97 -189 114 -290 120 -78 4 -86 3 -149
-28 -235 -116 -601 -646 -759 -1098 -27 -78 -34 -89 -114 -166 -73 -70 -160
-141 -209 -171 -12 -7 -13 2 -8 56 13 134 132 484 288 844 102 237 109 277 55
346 -91 119 -297 191 -407 142 -142 -64 -390 -300 -616 -589 -36 -46 -68 -84
-70 -84 -5 0 19 46 92 175 139 247 205 381 205 419 0 77 -133 177 -257 194
-67 9 -116 1 -142 -22 -26 -24 -139 -237 -204 -386 -159 -365 -434 -1175 -454
-1343 -5 -44 -4 -49 30 -80 100 -95 326 -138 385 -74 11 12 34 50 51 85 165
330 590 947 769 1116 l31 29 -35 -107 c-50 -154 -111 -395 -129 -511 -21 -129
-21 -283 -1 -322 53 -104 249 -193 421 -193 84 0 122 11 188 54 l47 32 56 -53
c99 -94 285 -164 394 -148 40 6 55 16 136 98 96 98 262 302 434 534 57 78 105
141 106 140 1 -1 -11 -54 -27 -117 -38 -155 -53 -259 -44 -325 21 -170 248
-323 422 -285 104 23 241 124 374 272 46 51 86 94 89 96 3 1 11 -17 17 -41 42
-157 407 -357 652 -357 121 0 253 55 385 160 42 33 76 57 76 53 0 -5 -11 -43
-25 -86 -30 -93 -31 -126 -6 -159 45 -56 186 -108 297 -108 75 0 109 22 118
77 4 21 24 100 44 177 l37 138 66 33 c220 111 540 103 743 -20 82 -49 108 -47
167 14 68 71 122 187 123 265 l1 61 -55 27 c-71 35 -187 58 -327 65 l-113 6
118 121 c272 280 566 624 677 791 115 174 101 226 -90 333 -97 54 -122 59
-171 34 -130 -67 -412 -356 -723 -744 -52 -65 -96 -116 -98 -114 -8 7 90 215
173 370 223 414 572 955 757 1176 62 75 183 192 224 218 47 29 64 73 44 109
-14 26 -216 149 -286 174 -68 24 -89 24 -142 -1z m-3501 -1641 c28 -15 48 -69
48 -133 0 -51 -4 -60 -67 -147 -221 -309 -610 -773 -621 -741 -8 25 80 252
159 412 130 262 303 508 416 593 42 31 38 30 65 16z m3182 -101 c-164 -228
-315 -416 -486 -605 -61 -68 -113 -123 -115 -123 -21 0 180 288 312 447 78 94
310 333 322 333 3 0 -12 -24 -33 -52z"/>
<path d="M14995 14759 c-208 -28 -475 -108 -706 -210 -155 -68 -197 -103 -206
-166 -11 -87 80 -219 191 -277 76 -40 128 -36 250 21 211 99 297 60 326 -148
42 -293 -182 -869 -439 -1130 -81 -82 -137 -113 -172 -96 -91 45 -83 253 21
539 37 100 144 324 206 429 24 42 44 87 44 100 0 119 -293 275 -404 215 -59
-32 -184 -289 -269 -552 -70 -216 -81 -284 -82 -475 l0 -165 42 -86 c74 -149
194 -237 380 -278 179 -40 409 -18 508 47 116 76 241 250 369 513 145 297 211
537 225 814 7 148 -3 215 -44 297 -34 66 -131 169 -191 200 -24 13 -44 27 -44
31 0 10 135 63 225 89 91 26 222 30 295 10 63 -18 114 -73 135 -145 41 -140
-31 -444 -296 -1243 -71 -215 -129 -407 -129 -427 0 -74 105 -148 258 -182 75
-17 144 -14 183 6 10 6 42 55 69 110 101 202 339 602 513 865 141 212 395 533
373 472 -64 -185 -116 -355 -162 -538 -50 -200 -56 -238 -61 -359 -5 -125 -4
-139 16 -178 38 -74 143 -138 296 -182 174 -50 298 -9 473 156 l87 81 47 -29
c66 -41 152 -69 225 -75 50 -5 70 -1 106 16 49 24 158 111 250 200 125 120
347 386 445 534 25 37 47 66 48 64 5 -5 -133 -363 -172 -448 -44 -94 -76 -126
-369 -370 -554 -460 -832 -744 -938 -959 -28 -56 -32 -75 -32 -145 0 -65 5
-90 25 -130 67 -137 254 -245 427 -245 191 0 499 281 802 730 134 199 204 319
376 649 148 281 149 284 219 344 111 95 314 243 521 380 105 69 200 135 211
148 40 44 67 112 72 180 4 59 2 69 -18 89 -16 16 -29 21 -50 16 -39 -7 -274
-152 -445 -274 -77 -55 -142 -98 -143 -97 -2 2 35 131 82 287 167 558 206 719
185 770 -30 73 -173 157 -284 166 -85 6 -117 -8 -151 -67 -125 -216 -498 -778
-669 -1006 -209 -281 -319 -397 -360 -382 -19 8 -12 45 32 166 73 197 183 408
319 612 46 69 84 135 84 145 0 82 -156 183 -297 192 l-74 5 -39 -41 c-60 -64
-182 -253 -254 -397 -71 -139 -146 -321 -206 -501 -32 -95 -47 -122 -98 -185
-92 -114 -196 -208 -291 -264 -34 -20 11 221 77 415 41 119 158 409 260 645
78 179 87 207 87 261 0 49 -5 68 -28 102 -71 108 -260 187 -385 161 -88 -18
-234 -149 -404 -364 -56 -70 -392 -541 -463 -648 -21 -32 -40 -56 -41 -54 -2
2 17 59 41 126 131 354 106 659 -70 849 -100 108 -271 199 -469 248 -115 29
-347 40 -471 23z m2757 -2466 c-114 -170 -238 -320 -390 -472 -84 -84 -155
-151 -158 -148 -15 15 60 124 191 277 78 92 402 430 412 430 2 0 -23 -39 -55
-87z"/>
<path d="M2375 8157 c-65 -38 -87 -72 -105 -169 -10 -48 -22 -76 -42 -98 -15
-17 -28 -38 -28 -46 0 -8 -4 -14 -9 -14 -5 0 -21 -37 -36 -82 -25 -79 -27 -96
-32 -348 -6 -283 5 -486 29 -541 9 -19 20 -45 25 -59 17 -41 60 -86 106 -111
57 -31 155 -32 212 -1 49 27 102 76 110 102 4 11 11 20 16 20 5 0 9 7 9 15 0
9 7 30 16 47 29 57 44 210 44 472 0 275 -12 410 -43 471 -16 31 -20 56 -18
117 l2 76 -35 28 c-20 16 -38 41 -41 56 -4 16 -11 28 -16 28 -5 0 -9 6 -9 13
0 31 -111 49 -155 24z m88 -92 c-5 -66 -35 -132 -74 -163 l-29 -24 0 72 c0 97
31 154 79 148 22 -3 26 -8 24 -33z"/>
<path d="M4093 7975 c-21 -19 -41 -35 -44 -35 -11 0 -50 -80 -44 -90 3 -5 1
-11 -5 -15 -5 -3 -10 -29 -10 -57 0 -58 31 -134 59 -143 27 -8 141 55 189 104
49 50 62 99 38 135 -8 14 -25 27 -36 31 -11 3 -20 15 -20 25 0 10 -6 30 -14
45 l-14 26 -20 -21 c-11 -12 -26 -22 -33 -24 -8 -1 -20 -5 -26 -9 -31 -19 -9
6 29 33 39 28 40 30 15 30 -16 0 -41 -14 -64 -35z m-19 -70 c-9 -14 -13 -25
-9 -25 5 0 0 -9 -10 -20 -22 -24 -14 -25 28 -4 27 13 29 14 17 1 -20 -20 -52
-28 -69 -18 -11 7 -8 17 18 50 36 46 50 55 25 16z"/>
<path d="M8338 7722 c-10 -2 -18 -8 -18 -13 0 -11 11 -11 30 1 18 11 11 18
-12 12z"/>
<path d="M5378 7613 c6 -2 18 -2 25 0 6 3 1 5 -13 5 -14 0 -19 -2 -12 -5z"/>
<path d="M5348 7602 c11 -7 11 -10 -2 -15 -11 -5 -16 -19 -16 -50 0 -58 19
-97 47 -97 31 0 43 28 43 99 0 58 -1 61 -24 61 -13 0 -33 3 -43 6 -13 4 -14 3
-5 -4z"/>
<path d="M4088 7592 c-29 -12 -55 -55 -67 -110 -15 -71 -15 -442 1 -496 13
-45 41 -82 69 -91 31 -10 73 23 94 73 18 42 20 70 20 288 0 220 -2 244 -20
282 -13 28 -30 45 -49 52 -16 5 -29 10 -30 9 -1 0 -9 -3 -18 -7z"/>
</g>
</svg>
